<svg xmlns="http://www.w3.org/2000/svg" width="512" height="512" viewBox="0 0 512 512" version="1.1"><path d="M 369 286 L 369 362 380 362 L 391 362 391 286 L 391 210 380 210 L 369 210 369 286" stroke="none" fill="#ffc40f" fill-rule="evenodd"/><path d="M 181 114.326 C 181 117.206, 176.540 119.819, 170.500 120.477 C 152.469 122.442, 139.111 130.314, 129.857 144.428 C 123.657 153.885, 121.898 161.010, 121.264 179.250 L 120.716 195 128.272 195 L 135.828 195 136.164 178.750 C 136.478 163.572, 136.677 162.122, 139.188 156.764 C 142.623 149.436, 150.436 141.623, 157.764 138.188 L 163.500 135.500 256 135.500 L 348.500 135.500 354.236 138.188 C 361.564 141.623, 369.377 149.436, 372.812 156.764 C 375.323 162.122, 375.522 163.572, 375.836 178.750 L 376.172 195 383.728 195 L 391.284 195 390.736 179.250 C 390.320 167.294, 389.692 161.934, 388.130 157 C 383.064 141.001, 370.387 128.255, 354.072 122.755 C 347.561 120.560, 346.819 120.537, 274.013 120.221 C 200.666 119.903, 200.521 119.899, 198.263 117.777 C 197.018 116.608, 196 115.055, 196 114.326 C 196 113.343, 194.062 113, 188.500 113 C 182.938 113, 181 113.343, 181 114.326 M 121.229 415.250 C 121.598 451.137, 121.755 453.901, 123.775 460 C 129.235 476.482, 142.009 489.109, 158.458 494.285 L 165.500 496.500 256 496.500 L 346.500 496.500 353.542 494.285 C 369.991 489.109, 382.765 476.482, 388.225 460 C 390.245 453.901, 390.402 451.137, 390.771 415.250 L 391.165 377 383.626 377 L 376.088 377 375.794 415.750 L 375.500 454.500 372.812 460.236 C 369.377 467.564, 361.564 475.377, 354.236 478.812 L 348.500 481.500 256 481.500 L 163.500 481.500 157.764 478.812 C 150.436 475.377, 142.623 467.564, 139.188 460.236 L 136.500 454.500 136.206 415.750 L 135.912 377 128.374 377 L 120.835 377 121.229 415.250" stroke="none" fill="#dbfffc" fill-rule="evenodd"/><path d="M 339 45 L 339 75 350 75 L 361 75 361 45 L 361 15 350 15 L 339 15 339 45" stroke="none" fill="#62676f" fill-rule="evenodd"/><path d="M 151 45 L 151 75 245 75 L 339 75 339 45 L 339 15 245 15 L 151 15 151 45 M 146.437 146.250 L 143.500 149.500 146.750 146.563 C 149.779 143.825, 150.460 143, 149.687 143 C 149.515 143, 148.052 144.463, 146.437 146.250 M 362 143.313 C 362 143.485, 363.462 144.948, 365.250 146.563 L 368.500 149.500 365.563 146.250 C 362.825 143.221, 362 142.540, 362 143.313 M 144 468.313 C 144 468.485, 145.463 469.948, 147.250 471.563 L 150.500 474.500 147.563 471.250 C 144.825 468.221, 144 467.540, 144 468.313 M 364.437 471.250 L 361.500 474.500 364.750 471.563 C 367.779 468.825, 368.460 468, 367.687 468 C 367.515 468, 366.052 469.462, 364.437 471.250" stroke="none" fill="#83878c" fill-rule="evenodd"/><path d="M 181 101.500 L 181 113 188.500 113 C 195.095 113, 196 112.780, 196 111.174 C 196 110.170, 197.042 108.370, 198.314 107.174 L 200.629 105 265.814 105 L 331 105 331 97.500 L 331 90 256 90 L 181 90 181 101.500 M 166.558 151.481 C 161.465 153.310, 158.048 155.878, 155.260 159.974 C 151.835 165.007, 151.012 169.415, 151.006 182.750 L 151 195 256.111 195 L 361.222 195 360.812 180.750 C 360.465 168.712, 360.075 165.879, 358.298 162.500 C 355.870 157.883, 352.945 155.005, 348 152.367 C 344.670 150.590, 340.284 150.489, 257.500 150.283 C 184.596 150.101, 169.861 150.295, 166.558 151.481 M 151.204 413.750 C 151.475 447.373, 151.659 450.798, 153.367 454 C 155.990 458.917, 158.865 461.853, 163.500 464.347 L 167.500 466.500 256 466.500 C 340.482 466.500, 344.659 466.415, 348 464.633 C 352.917 462.010, 355.853 459.135, 358.347 454.500 C 360.421 450.646, 360.511 449.158, 360.806 413.750 L 361.113 377 256.010 377 L 150.908 377 151.204 413.750" stroke="none" fill="#9bfef7" fill-rule="evenodd"/><path d="M 121 286 L 121 362 245 362 L 369 362 369 286 L 369 210 245 210 L 121 210 121 286" stroke="none" fill="#ffd959" fill-rule="evenodd"/><path d="M 138 2 C 136.065 3.935, 136 5.333, 136 45 C 136 84.667, 136.065 86.065, 138 88 C 139.795 89.795, 141.333 90, 153 90 L 166 90 166 97.317 L 166 104.634 158.397 106.427 C 145.595 109.445, 135.772 115.040, 125.951 124.909 C 116.160 134.747, 111.096 143.395, 107.972 155.609 C 106.054 163.110, 106 167.280, 106 308.500 C 106 449.720, 106.054 453.890, 107.972 461.391 C 111.105 473.639, 116.159 482.258, 125.951 492.049 C 135.742 501.841, 144.361 506.895, 156.609 510.028 C 164.008 511.920, 168.027 512, 256 512 C 343.973 512, 347.992 511.920, 355.391 510.028 C 367.639 506.895, 376.258 501.841, 386.049 492.049 C 395.841 482.258, 400.895 473.639, 404.028 461.391 C 405.946 453.890, 406 449.720, 406 308.500 C 406 167.280, 405.946 163.110, 404.028 155.609 C 400.904 143.395, 395.840 134.747, 386.049 124.909 C 376.168 114.981, 366.096 109.270, 353.537 106.476 L 346 104.799 346 97.400 L 346 90 359 90 C 370.667 90, 372.205 89.795, 374 88 C 375.935 86.065, 376 84.667, 376 45 C 376 5.333, 375.935 3.935, 374 2 C 372.023 0.023, 370.667 0, 256 0 C 141.333 0, 139.977 0.023, 138 2 M 151 45 L 151 75 256 75 L 361 75 361 45 L 361 15 256 15 L 151 15 151 45 M 180.985 101.750 C 180.976 109.183, 180.508 114.419, 179.710 116 C 178.382 118.635, 177.092 119.052, 164.680 120.854 C 144.896 123.727, 127.747 139.518, 122.489 159.703 C 121.495 163.519, 121 170.338, 121 180.210 L 121 195 128.500 195 L 136 195 136 183.136 C 136 176.612, 136.457 168.849, 137.015 165.886 C 139.913 150.510, 151.695 138.837, 167.213 135.968 C 170.853 135.296, 203.009 135.035, 259.647 135.218 L 346.500 135.500 352.493 137.913 C 356.589 139.562, 360.246 142.093, 364.048 145.913 C 373.555 155.462, 376 163.078, 376 183.136 L 376 195 383.500 195 L 391 195 391 180.210 C 391 163.659, 389.865 157.638, 384.887 147.777 C 381.013 140.102, 371.303 130.201, 364.043 126.522 C 351.399 120.114, 357.478 120.561, 275.285 120.007 C 191.288 119.441, 196.600 119.948, 196.600 112.500 C 196.600 105.089, 192.397 105.532, 265.535 105.229 L 331 104.958 331 97.479 L 331 90 256 90 L 181 90 180.985 101.750 M 162.880 152.794 C 158.990 154.826, 156.709 156.917, 154.515 160.461 C 151.568 165.223, 151.493 165.668, 151.178 180.166 L 150.856 195 256 195 L 361.144 195 360.822 180.166 C 360.507 165.668, 360.432 165.223, 357.485 160.461 C 355.291 156.917, 353.010 154.826, 349.120 152.794 L 343.772 150 256 150 L 168.228 150 162.880 152.794 M 121 286 L 121 362 256 362 L 391 362 391 286 L 391 210 256 210 L 121 210 121 286 M 121 414.290 C 121 444.089, 121.299 452.728, 122.489 457.297 C 127.307 475.793, 142.144 490.677, 160.542 495.469 C 169.242 497.735, 342.611 497.773, 351.297 495.511 C 369.981 490.644, 384.644 475.981, 389.511 457.297 C 390.701 452.728, 391 444.089, 391 414.290 L 391 377 383.500 377 L 376 377 376 411.364 C 376 430.427, 375.548 448.110, 374.985 451.079 C 372.099 466.296, 360.283 478.126, 345.114 480.985 C 337.801 482.363, 174.187 482.363, 166.921 480.985 C 151.704 478.099, 139.874 466.283, 137.015 451.114 C 136.453 448.128, 136 430.409, 136 411.364 L 136 377 128.500 377 L 121 377 121 414.290 M 151.215 414.330 L 151.500 451.661 154.515 456.536 C 156.710 460.084, 158.987 462.172, 162.880 464.206 L 168.228 467 256 467 L 343.772 467 349.120 464.206 C 353.013 462.172, 355.290 460.084, 357.485 456.536 L 360.500 451.661 360.785 414.330 L 361.070 377 256 377 L 150.930 377 151.215 414.330" stroke="none" fill="#040404" fill-rule="evenodd"/></svg>