<svg xmlns="http://www.w3.org/2000/svg" viewBox="0 0 300 300" style="enable-background:new 0 0 511.964 511.964" xml:space="preserve" width="300" height="300"><path style="fill:#f5f7fa" d="M62.499 293.746c-15.024 0-29.15-5.85-39.77-16.47-21.937-21.936-21.937-57.623 0-79.559L197.722 22.724c10.639-10.62 24.757-16.48 39.789-16.48 15.014 0 29.15 5.859 39.77 16.48 10.62 10.62 16.48 24.756 16.48 39.77 0 15.033-5.86 29.15-16.48 39.78L102.279 277.276c-10.63 10.62-24.757 16.471-39.78 16.471z"/><path style="fill:#e6e9ed" d="M281.694 18.302C269.499 6.098 253.496.001 237.512.001c-16.004 0-31.988 6.097-44.201 18.302L18.308 193.305c-24.407 24.407-24.407 63.977 0 88.385C30.511 293.893 46.506 300 62.5 300s31.988-6.106 44.192-18.31l175.003-174.994c24.408-24.407 24.408-63.985 0-88.394zm-8.826 79.55L97.857 272.854c-9.448 9.439-22 14.639-35.358 14.639s-25.909-5.2-35.357-14.639c-9.44-9.439-14.639-22-14.639-35.357 0-13.358 5.2-25.91 14.639-35.348L202.154 27.137c9.448-9.439 21.991-14.639 35.358-14.639 13.348 0 25.909 5.2 35.357 14.639 9.431 9.449 14.63 22.009 14.63 35.357-.001 13.357-5.2 25.91-14.63 35.358z"/><path style="fill:#ed5564" d="M147.049 152.947c-13.54-13.532-25.287-28.381-35.174-44.366L22.73 197.716c-21.937 21.937-21.937 57.623 0 79.559 10.62 10.62 24.746 16.47 39.77 16.47s29.15-5.85 39.78-16.47l89.144-89.154c-15.986-9.887-30.835-21.633-44.375-35.174z"/><path style="fill:#da4453" d="M97.857 272.854c-9.448 9.439-22 14.639-35.358 14.639s-25.909-5.2-35.357-14.639c-9.44-9.439-14.639-22-14.639-35.357 0-13.358 5.2-25.91 14.639-35.348l88.165-88.165a244.026 244.026 0 0 1-6.757-10.931l-27.053 27.064-63.2 63.198c-24.398 24.407-24.398 63.968.01 88.375C30.51 293.893 46.505 300 62.499 300s31.988-6.106 44.192-18.31l90.261-90.243a231.504 231.504 0 0 1-10.931-6.757l-88.164 88.164z"/></svg>