<svg xmlns="http://www.w3.org/2000/svg" width="512" height="512" viewBox="0 0 512 512" version="1.1"><path d="M 321.897 169.093 C 313.978 174.043, 307.579 178.422, 307.676 178.824 C 307.773 179.227, 317.380 194.843, 329.027 213.528 C 340.673 232.213, 350.518 247.840, 350.905 248.255 C 351.292 248.670, 358.785 246.016, 367.555 242.358 C 376.325 238.699, 385.975 234.896, 389 233.907 C 392.025 232.917, 393.786 232.083, 392.912 232.054 C 392.039 232.024, 387.978 228.287, 383.888 223.750 C 379.799 219.213, 373.505 211.900, 369.902 207.500 C 366.299 203.100, 360.709 195.900, 357.480 191.500 C 354.251 187.100, 348.163 178.233, 343.951 171.796 L 336.293 160.092 321.897 169.093" stroke="none" fill="#bcd7d9" fill-rule="evenodd"/><path d="M 377.740 134.242 C 355.370 148.134, 337.053 159.889, 337.034 160.364 C 337.015 160.839, 339.980 165.789, 343.623 171.364 C 347.266 176.939, 353.197 185.550, 356.804 190.500 C 360.410 195.450, 367.086 204, 371.638 209.500 C 376.190 215, 382.534 222.376, 385.737 225.891 L 391.560 232.282 398.112 231.141 C 401.716 230.513, 407.008 230, 409.874 230 C 412.740 230, 418.553 230.705, 422.792 231.566 C 427.031 232.427, 434.308 234.962, 438.963 237.198 L 447.425 241.263 456.399 250.237 L 465.373 259.211 466.804 257.355 C 467.591 256.335, 469.538 252.684, 471.131 249.242 C 472.724 245.801, 474.689 240.176, 475.499 236.742 C 476.308 233.309, 476.977 226.290, 476.985 221.144 C 476.993 215.976, 476.322 209.172, 475.485 205.942 C 474.652 202.727, 473.094 198.053, 472.024 195.556 C 470.954 193.059, 458.977 173.125, 445.409 151.258 C 431.841 129.391, 420.216 110.934, 419.576 110.242 L 418.412 108.984 377.740 134.242" stroke="none" fill="#d1eff2" fill-rule="evenodd"/><path d="M 296 2.364 C 291.875 3.605, 286.587 5.616, 284.250 6.831 L 280 9.041 280.001 15.770 C 280.002 19.472, 280.638 26.108, 281.414 30.518 C 282.190 34.927, 283.577 41.452, 284.496 45.018 C 285.415 48.583, 287.762 56.450, 289.710 62.500 C 291.659 68.550, 295.256 78.450, 297.703 84.500 C 300.151 90.550, 306.584 104.500, 311.999 115.500 C 317.413 126.500, 325.039 140.980, 328.946 147.678 L 336.048 159.855 376.774 134.373 C 399.669 120.047, 417.446 108.298, 417.376 107.536 C 417.308 106.792, 405.728 87.752, 391.642 65.227 L 366.031 24.272 359.084 17.718 L 352.137 11.165 343.819 7.092 C 339.243 4.853, 332.818 2.340, 329.540 1.510 C 326.074 0.632, 319.378 0.022, 313.540 0.054 L 303.500 0.107 296 2.364 M 393.500 232.902 C 389.650 233.960, 378.888 238.014, 369.584 241.912 C 360.280 245.811, 352.180 249.003, 351.584 249.008 C 350.988 249.012, 339.940 253.403, 327.034 258.766 L 303.567 268.517 302.111 271.111 L 300.655 273.706 319.419 319.103 C 329.740 344.071, 338.771 365.426, 339.489 366.557 C 340.206 367.689, 342.457 372.639, 344.490 377.557 C 346.523 382.476, 348.649 387.063, 349.216 387.750 C 349.782 388.438, 351.697 389, 353.472 389 C 355.363 389, 372.808 382.336, 395.599 372.908 C 416.995 364.058, 437.650 355.179, 441.500 353.179 L 448.500 349.541 456.149 341.932 L 463.798 334.323 468.303 324.911 C 470.780 319.735, 473.377 313.025, 474.074 310 C 474.770 306.975, 475.322 300.450, 475.300 295.500 C 475.278 290.482, 474.520 283.624, 473.588 280 C 472.668 276.425, 470.819 271.104, 469.479 268.177 C 468.140 265.249, 464.446 259.826, 461.272 256.125 C 458.097 252.425, 453.184 247.495, 450.353 245.170 C 447.522 242.845, 442.572 239.646, 439.353 238.060 C 436.134 236.474, 431.250 234.409, 428.500 233.473 L 423.500 231.769 412 231.374 L 400.500 230.979 393.500 232.902" stroke="none" fill="#76b7eb" fill-rule="evenodd"/><path d="M 272.781 14.491 C 269.635 16.960, 265.177 21.348, 262.873 24.240 C 260.569 27.133, 256.999 33.100, 254.940 37.500 C 252.881 41.900, 250.629 48.200, 249.936 51.500 C 249.243 54.800, 248.709 61.100, 248.749 65.500 C 248.792 70.104, 249.682 76.749, 250.846 81.154 C 251.959 85.364, 254.072 91.181, 255.541 94.082 C 257.011 96.982, 266.636 112.888, 276.930 129.428 C 287.223 145.967, 297.610 162.817, 300.011 166.872 C 302.412 170.926, 305.079 175.075, 305.938 176.092 L 307.500 177.941 321.500 169.067 C 329.200 164.186, 335.399 159.734, 335.276 159.174 C 335.153 158.614, 331.364 151.728, 326.856 143.871 C 322.349 136.015, 314.955 121.917, 310.427 112.543 C 305.899 103.170, 300.182 90.550, 297.723 84.500 C 295.265 78.450, 291.659 68.550, 289.710 62.500 C 287.762 56.450, 285.415 48.583, 284.496 45.018 C 283.577 41.452, 282.190 34.927, 281.414 30.518 C 280.638 26.108, 280.002 19.688, 280.001 16.250 C 280.001 12.813, 279.663 10, 279.250 10.001 C 278.837 10.001, 275.926 12.022, 272.781 14.491" stroke="none" fill="#6aa4d3" fill-rule="evenodd"/><path d="M 234.003 70.750 C 233.404 72.813, 232.663 78.550, 232.357 83.500 L 231.801 92.500 233.379 99.906 C 234.247 103.979, 236.242 110.054, 237.812 113.406 C 239.382 116.758, 245.989 127.999, 252.493 138.388 L 264.319 157.275 265.070 161.383 L 265.821 165.492 264.464 168.496 C 263.717 170.148, 262.520 172.205, 261.803 173.067 C 261.086 173.930, 252.850 180.703, 243.500 188.120 C 234.150 195.537, 219.873 206.419, 211.773 212.303 C 203.674 218.186, 196.568 223, 195.983 223 C 195.398 223, 196.585 224.800, 198.620 227 C 200.656 229.200, 202.901 231, 203.609 231 C 204.317 231, 208.524 232.146, 212.958 233.546 L 221.018 236.093 248.759 211.401 C 264.017 197.821, 279.141 184.187, 282.370 181.105 C 285.598 178.022, 290.235 172.458, 292.674 168.741 L 297.109 161.981 277.364 130.269 C 266.504 112.827, 256.375 96.068, 254.856 93.027 C 253.336 89.987, 251.404 84.574, 250.561 80.999 C 249.719 77.425, 249.023 73.094, 249.015 71.375 L 249 68.250 245.875 67.625 C 244.156 67.281, 241.027 67, 238.922 67 L 235.094 67 234.003 70.750" stroke="none" fill="#72c5bf" fill-rule="evenodd"/><path d="M 224.500 68.563 C 220.563 69.336, 213.561 71.892, 208.500 74.403 L 199.500 78.869 165 109.522 C 146.025 126.381, 129.422 141.224, 128.105 142.505 L 125.710 144.836 160.529 183.918 C 179.679 205.413, 195.730 223, 196.197 223 C 196.665 223, 203.674 218.186, 211.773 212.303 C 219.873 206.419, 234.150 195.537, 243.500 188.120 C 252.850 180.703, 261.086 173.930, 261.803 173.067 C 262.520 172.205, 263.717 170.148, 264.464 168.496 L 265.821 165.492 265.070 161.383 L 264.319 157.275 252.493 138.388 C 245.989 127.999, 239.384 116.761, 237.815 113.412 C 236.247 110.064, 234.305 104.214, 233.499 100.412 C 232.694 96.611, 232.027 90.749, 232.017 87.386 C 232.008 84.024, 232.458 78.849, 233.017 75.886 C 233.576 72.924, 234.282 69.713, 234.584 68.750 L 235.135 67 233.317 67.094 C 232.318 67.146, 228.350 67.807, 224.500 68.563 M 327.182 369.597 L 321.971 372.193 319.355 376.658 L 316.738 381.123 316.786 386.450 C 316.812 389.380, 317.523 393.111, 318.366 394.741 C 319.208 396.370, 321.490 399.101, 323.436 400.809 C 325.382 402.518, 328.849 404.421, 331.141 405.038 L 335.308 406.160 339.904 405.005 C 342.432 404.369, 346.011 402.698, 347.859 401.291 C 349.706 399.884, 352.044 396.887, 353.053 394.633 L 354.888 390.534 351.562 389.207 L 348.235 387.880 344.470 378.690 C 342.399 373.635, 340.266 368.938, 339.730 368.250 C 339.194 367.563, 337.324 367, 335.574 367 C 333.824 367, 330.048 368.169, 327.182 369.597 M 251 413.185 L 246.500 415.500 244.185 420 L 241.871 424.500 242.325 428.864 C 242.576 431.265, 243.658 434.415, 244.732 435.864 C 245.806 437.314, 248.172 439.512, 249.990 440.750 L 253.296 443 257.747 443 C 260.195 443, 263.737 442.270, 265.619 441.377 C 267.500 440.484, 270.020 438.376, 271.219 436.692 L 273.399 433.631 273.788 428.065 L 274.177 422.500 271.839 419.092 C 270.552 417.218, 268.314 414.806, 266.864 413.732 C 265.415 412.658, 262.265 411.576, 259.864 411.325 L 255.500 410.871 251 413.185" stroke="none" fill="#7fdbd5" fill-rule="evenodd"/><path d="M 97.159 169.982 L 69 195.047 69 202.313 C 69 206.310, 69.679 212.262, 70.509 215.540 C 71.338 218.818, 73.696 224.875, 75.749 229 L 79.480 236.500 86.536 243.595 L 93.593 250.689 101.201 254.450 L 108.809 258.210 116.155 259.259 L 123.500 260.308 131.341 258.700 L 139.182 257.092 146.941 249.679 C 151.208 245.602, 157.580 240.671, 161.100 238.721 C 164.620 236.772, 170.585 234.237, 174.355 233.088 C 178.126 231.940, 182.068 231, 183.117 231 C 184.165 231, 187.260 229.538, 189.994 227.750 C 192.727 225.963, 194.972 224.209, 194.982 223.853 C 194.992 223.497, 179.646 205.947, 160.880 184.853 C 142.114 163.759, 126.435 146.144, 126.039 145.709 C 125.642 145.274, 112.646 156.197, 97.159 169.982" stroke="none" fill="#287d99" fill-rule="evenodd"/><path d="M 58.499 204.680 L 48.498 214.500 44.724 221 C 42.647 224.575, 39.796 231.100, 38.388 235.500 L 35.827 243.500 35.281 253.009 L 34.736 262.518 36.866 271.009 C 38.037 275.679, 40.457 282.425, 42.242 286 L 45.489 292.500 53.995 301.110 L 62.500 309.719 71 313.879 C 75.675 316.166, 82.875 318.749, 87 319.618 L 94.500 321.198 104.046 320.705 L 113.591 320.211 120.949 317.653 C 124.995 316.245, 128.678 314.722, 129.133 314.267 C 129.588 313.812, 129.442 311.653, 128.809 309.470 C 128.175 307.286, 127.679 300.775, 127.706 295 L 127.755 284.500 130.342 276.500 C 131.765 272.100, 134.519 265.860, 136.461 262.634 L 139.994 256.768 137.747 257.387 C 136.511 257.727, 132.461 258.520, 128.746 259.150 L 121.992 260.294 115.249 259.177 C 111.452 258.548, 105.281 256.466, 101.127 254.413 L 93.750 250.767 87.054 244.134 C 83.371 240.485, 78.917 234.951, 77.155 231.836 C 75.393 228.720, 73.022 223.545, 71.886 220.336 C 70.673 216.908, 69.548 210.449, 69.160 204.680 L 68.500 194.861 58.499 204.680" stroke="none" fill="#247089" fill-rule="evenodd"/><path d="M 273.220 344.250 C 272.656 344.938, 270.344 349.956, 268.082 355.403 L 263.970 365.305 265.569 367.746 C 266.449 369.089, 269.218 371.094, 271.723 372.202 L 276.278 374.217 279.866 373.634 C 281.839 373.314, 284.589 372.212, 285.977 371.184 C 287.364 370.157, 289.512 367.828, 290.750 366.010 L 293 362.704 293 358.753 C 293 356.580, 292.266 353.256, 291.370 351.367 C 290.419 349.363, 287.987 346.904, 285.532 345.466 C 283.204 344.102, 279.743 343, 277.785 343 C 275.838 343, 273.784 343.563, 273.220 344.250 M 316.859 432.158 C 314.856 433.319, 312.268 435.957, 311.109 438.021 C 309.949 440.084, 309 443.188, 309 444.918 C 309 446.649, 309.614 449.533, 310.364 451.329 C 311.114 453.124, 313.124 455.768, 314.829 457.203 C 316.535 458.638, 319.759 460.121, 321.993 460.499 L 326.056 461.185 330.778 458.843 L 335.500 456.500 337.843 451.778 L 340.185 447.056 339.499 442.993 C 339.121 440.759, 337.638 437.535, 336.203 435.829 C 334.768 434.124, 332.124 432.114, 330.329 431.364 C 328.533 430.614, 325.587 430.010, 323.782 430.023 C 321.977 430.036, 318.861 430.996, 316.859 432.158" stroke="none" fill="#38648c" fill-rule="evenodd"/><path d="M 224.500 68.563 C 220.563 69.336, 213.561 71.892, 208.500 74.403 L 199.500 78.869 165 109.522 C 146.025 126.381, 129.422 141.224, 128.105 142.505 L 125.710 144.836 160.529 183.918 C 179.679 205.413, 195.730 223, 196.197 223 C 196.665 223, 203.674 218.186, 211.773 212.303 C 219.873 206.419, 234.150 195.537, 243.500 188.120 C 252.850 180.703, 261.086 173.930, 261.803 173.067 C 262.520 172.205, 263.717 170.148, 264.464 168.496 L 265.821 165.492 265.070 161.383 L 264.319 157.275 252.493 138.388 C 245.989 127.999, 239.384 116.761, 237.815 113.412 C 236.247 110.064, 234.305 104.214, 233.499 100.412 C 232.694 96.611, 232.027 90.749, 232.017 87.386 C 232.008 84.024, 232.458 78.849, 233.017 75.886 C 233.576 72.924, 234.282 69.713, 234.584 68.750 L 235.135 67 233.317 67.094 C 232.318 67.146, 228.350 67.807, 224.500 68.563 M 327.182 369.597 L 321.971 372.193 319.355 376.658 L 316.738 381.123 316.786 386.450 C 316.812 389.380, 317.523 393.111, 318.366 394.741 C 319.208 396.370, 321.490 399.101, 323.436 400.809 C 325.382 402.518, 328.849 404.421, 331.141 405.038 L 335.308 406.160 339.904 405.005 C 342.432 404.369, 346.011 402.698, 347.859 401.291 C 349.706 399.884, 352.044 396.887, 353.053 394.633 L 354.888 390.534 351.562 389.207 L 348.235 387.880 344.470 378.690 C 342.399 373.635, 340.266 368.938, 339.730 368.250 C 339.194 367.563, 337.324 367, 335.574 367 C 333.824 367, 330.048 368.169, 327.182 369.597 M 251 413.185 L 246.500 415.500 244.185 420 L 241.871 424.500 242.325 428.864 C 242.576 431.265, 243.658 434.415, 244.732 435.864 C 245.806 437.314, 248.172 439.512, 249.990 440.750 L 253.296 443 257.747 443 C 260.195 443, 263.737 442.270, 265.619 441.377 C 267.500 440.484, 270.020 438.376, 271.219 436.692 L 273.399 433.631 273.788 428.065 L 274.177 422.500 271.839 419.092 C 270.552 417.218, 268.314 414.806, 266.864 413.732 C 265.415 412.658, 262.265 411.576, 259.864 411.325 L 255.500 410.871 251 413.185" stroke="none" fill="#7fdbd5" fill-rule="evenodd"/><path d="M 145.339 251.390 C 142.127 254.904, 137.806 260.933, 135.736 264.786 C 133.665 268.640, 131.078 275.286, 129.986 279.556 L 128 287.320 128 295.595 C 128 300.146, 128.692 307.161, 129.538 311.185 C 130.384 315.208, 132.736 321.875, 134.766 326 L 138.456 333.500 146.478 341.565 L 154.500 349.630 162.500 353.681 C 166.900 355.909, 188.061 364.992, 209.523 373.866 C 230.986 382.740, 249.274 390, 250.163 390 C 251.051 390, 252.677 389.212, 253.776 388.250 C 254.874 387.288, 257.825 381.325, 260.334 375 C 262.842 368.675, 265.367 362.237, 265.944 360.693 C 266.522 359.149, 266.633 358.109, 266.191 358.382 C 265.749 358.655, 260.227 357.611, 253.919 356.061 C 247.611 354.512, 238.186 351.810, 232.975 350.057 C 227.764 348.303, 218.100 344.241, 211.500 341.029 C 204.900 337.817, 196.125 332.899, 192 330.100 C 187.875 327.301, 181.055 321.868, 176.845 318.026 C 172.635 314.185, 166.879 307.995, 164.055 304.271 C 161.230 300.547, 157.166 293.900, 155.025 289.500 C 152.884 285.100, 150.356 278.575, 149.409 275 C 148.433 271.320, 147.645 264.523, 147.593 259.331 L 147.500 250.162 149.924 247.581 C 151.258 246.161, 152.085 245, 151.763 245 C 151.441 245, 148.550 247.875, 145.339 251.390" stroke="none" fill="#d97d68" fill-rule="evenodd"/><path d="M 178.168 232.475 C 174.685 233.263, 168.587 235.513, 164.617 237.475 C 160.646 239.437, 155.171 243.002, 152.449 245.397 L 147.500 249.752 147.593 259.126 C 147.646 264.515, 148.418 271.264, 149.409 275 C 150.356 278.575, 152.884 285.100, 155.025 289.500 C 157.166 293.900, 161.230 300.547, 164.055 304.271 C 166.879 307.995, 172.635 314.185, 176.845 318.026 C 181.055 321.868, 187.875 327.301, 192 330.100 C 196.125 332.899, 204.900 337.824, 211.500 341.044 C 218.100 344.264, 228.400 348.515, 234.388 350.491 C 240.377 352.466, 249.152 354.978, 253.888 356.072 C 258.625 357.167, 263.297 358.306, 264.270 358.605 L 266.040 359.148 267.583 355.324 C 268.431 353.221, 270.650 348.350, 272.514 344.500 C 274.377 340.650, 281.549 323.823, 288.451 307.106 C 295.663 289.639, 301 275.337, 301 273.478 C 301 271.700, 300.438 269.780, 299.750 269.212 C 299.063 268.643, 282.075 261.364, 262 253.035 C 241.925 244.706, 221.450 236.518, 216.500 234.838 L 207.500 231.785 196 231.414 L 184.500 231.043 178.168 232.475 M 270.500 472.503 C 268.300 473.281, 264.843 475.686, 262.819 477.846 C 260.746 480.059, 258.629 483.662, 257.974 486.095 C 257.334 488.472, 257.097 492.207, 257.447 494.396 C 257.797 496.586, 259.044 500.086, 260.218 502.175 C 261.392 504.264, 264.097 507.181, 266.228 508.658 L 270.104 511.344 275.440 511.787 C 278.375 512.030, 282.413 511.689, 284.413 511.029 C 286.414 510.368, 289.409 508.685, 291.069 507.288 C 292.729 505.891, 295.016 502.930, 296.150 500.707 L 298.212 496.665 297.816 490.449 L 297.420 484.233 294.777 480.239 L 292.134 476.246 286.871 473.623 C 283.976 472.180, 280.008 471.020, 278.054 471.044 C 276.099 471.068, 272.700 471.725, 270.500 472.503" stroke="none" fill="#f28b74" fill-rule="evenodd"/><path d="M 296 2.364 C 291.875 3.605, 286.587 5.616, 284.250 6.831 L 280 9.041 280.001 15.770 C 280.002 19.472, 280.638 26.108, 281.414 30.518 C 282.190 34.927, 283.577 41.452, 284.496 45.018 C 285.415 48.583, 287.762 56.450, 289.710 62.500 C 291.659 68.550, 295.256 78.450, 297.703 84.500 C 300.151 90.550, 306.584 104.500, 311.999 115.500 C 317.413 126.500, 325.039 140.980, 328.946 147.678 L 336.048 159.855 376.774 134.373 C 399.669 120.047, 417.446 108.298, 417.376 107.536 C 417.308 106.792, 405.728 87.752, 391.642 65.227 L 366.031 24.272 359.084 17.718 L 352.137 11.165 343.819 7.092 C 339.243 4.853, 332.818 2.340, 329.540 1.510 C 326.074 0.632, 319.378 0.022, 313.540 0.054 L 303.500 0.107 296 2.364 M 393.500 232.902 C 389.650 233.960, 378.888 238.014, 369.584 241.912 C 360.280 245.811, 352.180 249.003, 351.584 249.008 C 350.988 249.012, 339.940 253.403, 327.034 258.766 L 303.567 268.517 302.111 271.111 L 300.655 273.706 319.419 319.103 C 329.740 344.071, 338.771 365.426, 339.489 366.557 C 340.206 367.689, 342.457 372.639, 344.490 377.557 C 346.523 382.476, 348.649 387.063, 349.216 387.750 C 349.782 388.438, 351.697 389, 353.472 389 C 355.363 389, 372.808 382.336, 395.599 372.908 C 416.995 364.058, 437.650 355.179, 441.500 353.179 L 448.500 349.541 456.149 341.932 L 463.798 334.323 468.303 324.911 C 470.780 319.735, 473.377 313.025, 474.074 310 C 474.770 306.975, 475.322 300.450, 475.300 295.500 C 475.278 290.482, 474.520 283.624, 473.588 280 C 472.668 276.425, 470.819 271.104, 469.479 268.177 C 468.140 265.249, 464.446 259.826, 461.272 256.125 C 458.097 252.425, 453.184 247.495, 450.353 245.170 C 447.522 242.845, 442.572 239.646, 439.353 238.060 C 436.134 236.474, 431.250 234.409, 428.500 233.473 L 423.500 231.769 412 231.374 L 400.500 230.979 393.500 232.902" stroke="none" fill="#76b7eb" fill-rule="evenodd"/><path d="" stroke="none" fill="#e0afa5" fill-rule="evenodd"/><path d="" stroke="none" fill="#75bddf" fill-rule="evenodd"/></svg>