<svg xmlns="http://www.w3.org/2000/svg" width="512" height="512" viewBox="0 0 512 512" version="1.1"><path d="M 281.871 84.681 L 273 93.362 273 96.090 L 273 98.819 325.058 150.659 L 377.116 202.500 379.623 202.823 L 382.130 203.145 390.732 194.697 L 399.333 186.249 399.333 183.033 L 399.333 179.817 347.397 127.909 L 295.460 76 293.101 76 L 290.742 76 281.871 84.681 M 96.843 367.750 C 90.449 374.212, 84.718 380.483, 84.109 381.684 C 83.499 382.886, 83 384.400, 83 385.049 C 83 385.698, 86.465 389.790, 90.700 394.142 L 98.400 402.054 49.200 451.320 L 0 500.586 0 504.119 L -0 507.651 2.314 509.826 L 4.629 512 8.021 512 L 11.414 512 60.700 462.780 L 109.985 413.561 105.785 409.280 L 101.584 405 104.056 405 L 106.529 405 119.265 392.235 L 132.002 379.470 120.236 367.735 L 108.469 355.999 96.843 367.750" stroke="none" fill="#45748c" fill-rule="evenodd"/><path d="M 399.333 182.987 L 399.333 186.120 391.417 194.092 C 387.063 198.476, 382.313 202.387, 380.863 202.782 L 378.227 203.500 395.451 221.250 L 412.676 239 415.657 239 L 418.638 239 427.319 230.129 L 436 221.258 436 218.869 L 436 216.480 417.667 198.166 L 399.333 179.853 399.333 182.987 M 119.048 392.452 C 111.761 399.756, 105.690 405.027, 104.362 405.202 L 102.097 405.500 111.678 415.791 C 116.947 421.451, 122.528 426.739, 124.080 427.541 C 125.631 428.344, 127.639 429, 128.540 429 C 129.442 429, 135.765 423.525, 142.590 416.832 C 149.416 410.140, 155 404.170, 155 403.566 C 155 402.962, 149.930 397.412, 143.734 391.234 C 137.538 385.055, 132.244 380, 131.969 380 C 131.695 380, 125.880 385.603, 119.048 392.452" stroke="none" fill="#2c5871" fill-rule="evenodd"/><path d="M 281.871 84.681 L 273 93.362 273 96.090 L 273 98.819 325.058 150.659 L 377.116 202.500 379.623 202.823 L 382.130 203.145 390.732 194.697 L 399.333 186.249 399.333 183.033 L 399.333 179.817 347.397 127.909 L 295.460 76 293.101 76 L 290.742 76 281.871 84.681 M 96.843 367.750 C 90.449 374.212, 84.718 380.483, 84.109 381.684 C 83.499 382.886, 83 384.400, 83 385.049 C 83 385.698, 86.465 389.790, 90.700 394.142 L 98.400 402.054 49.200 451.320 L 0 500.586 0 504.119 L -0 507.651 2.314 509.826 L 4.629 512 8.021 512 L 11.414 512 60.700 462.780 L 109.985 413.561 105.785 409.280 L 101.584 405 104.056 405 L 106.529 405 119.265 392.235 L 132.002 379.470 120.236 367.735 L 108.469 355.999 96.843 367.750" stroke="none" fill="#45748c" fill-rule="evenodd"/><path d="M 476.007 77.091 L 476 79.683 469.644 85.786 C 466.148 89.143, 462.071 92.195, 460.584 92.568 C 459.096 92.942, 456.114 93.010, 453.957 92.721 L 450.034 92.195 450.941 93.847 C 451.440 94.756, 459.195 102.771, 468.174 111.657 L 484.500 127.815 488.555 128.893 L 492.610 129.972 496.020 128.994 C 498.021 128.420, 502.027 125.442, 505.715 121.787 L 512 115.558 512 113.084 L 512 110.611 494.007 92.556 L 476.015 74.500 476.007 77.091" stroke="none" fill="#57565c" fill-rule="evenodd"/><path d="M 390.242 6.247 C 386.599 9.928, 383.578 13.983, 383.014 15.950 C 382.481 17.809, 382.323 20.494, 382.663 21.915 C 383.003 23.337, 383.859 25.651, 384.566 27.057 C 385.273 28.464, 400.272 43.692, 417.896 60.898 L 449.940 92.182 453.909 92.715 C 456.093 93.008, 459.096 92.942, 460.584 92.568 C 462.071 92.195, 466.148 89.143, 469.644 85.786 L 476 79.683 476 77.560 L 476 75.437 438.497 37.969 L 400.993 0.500 398.747 0.212 L 396.500 -0.076 390.242 6.247" stroke="none" fill="#68686b" fill-rule="evenodd"/><path d="M 399.333 182.987 L 399.333 186.120 391.417 194.092 C 387.063 198.476, 382.313 202.387, 380.863 202.782 L 378.227 203.500 395.451 221.250 L 412.676 239 415.657 239 L 418.638 239 427.319 230.129 L 436 221.258 436 218.869 L 436 216.480 417.667 198.166 L 399.333 179.853 399.333 182.987 M 119.048 392.452 C 111.761 399.756, 105.690 405.027, 104.362 405.202 L 102.097 405.500 111.678 415.791 C 116.947 421.451, 122.528 426.739, 124.080 427.541 C 125.631 428.344, 127.639 429, 128.540 429 C 129.442 429, 135.765 423.525, 142.590 416.832 C 149.416 410.140, 155 404.170, 155 403.566 C 155 402.962, 149.930 397.412, 143.734 391.234 C 137.538 385.055, 132.244 380, 131.969 380 C 131.695 380, 125.880 385.603, 119.048 392.452" stroke="none" fill="#2c5871" fill-rule="evenodd"/><path d="M 281.871 84.681 L 273 93.362 273 96.090 L 273 98.819 325.058 150.659 L 377.116 202.500 379.623 202.823 L 382.130 203.145 390.732 194.697 L 399.333 186.249 399.333 183.033 L 399.333 179.817 347.397 127.909 L 295.460 76 293.101 76 L 290.742 76 281.871 84.681 M 96.843 367.750 C 90.449 374.212, 84.718 380.483, 84.109 381.684 C 83.499 382.886, 83 384.400, 83 385.049 C 83 385.698, 86.465 389.790, 90.700 394.142 L 98.400 402.054 49.200 451.320 L 0 500.586 0 504.119 L -0 507.651 2.314 509.826 L 4.629 512 8.021 512 L 11.414 512 60.700 462.780 L 109.985 413.561 105.785 409.280 L 101.584 405 104.056 405 L 106.529 405 119.265 392.235 L 132.002 379.470 120.236 367.735 L 108.469 355.999 96.843 367.750" stroke="none" fill="#45748c" fill-rule="evenodd"/><path d="M 272 122.251 L 260.500 133.485 281.757 154.469 L 303.014 175.453 314.511 163.989 L 326.008 152.525 305.263 131.763 C 293.853 120.343, 284.289 111.004, 284.009 111.009 C 283.729 111.013, 278.325 116.072, 272 122.251 M 232.518 161.982 L 214.999 179.521 231.977 196.477 C 241.315 205.803, 249.354 214.576, 249.840 215.972 C 250.327 217.368, 250.369 219.472, 249.934 220.648 C 249.499 221.824, 248.111 223.509, 246.849 224.393 C 245.587 225.277, 243.670 226, 242.589 226 L 240.623 226 222.534 208.007 L 204.446 190.015 194.984 199.516 L 185.523 209.017 206.516 230.010 L 227.509 251.003 259.742 218.751 L 291.975 186.500 271.006 165.471 L 250.038 144.442 232.518 161.982 M 310.199 235.301 L 260.949 284.558 264.250 287.758 L 267.551 290.957 316.801 241.699 L 366.051 192.442 362.750 189.242 L 359.449 186.043 310.199 235.301" stroke="none" fill="#e1effb" fill-rule="evenodd"/><path d="M 304.500 131 C 316.040 142.550, 325.707 152, 325.982 152 C 326.257 152, 317.040 142.550, 305.500 131 C 293.960 119.450, 284.293 110, 284.018 110 C 283.743 110, 292.960 119.450, 304.500 131 M 254.462 139.057 L 249.500 144.115 275.255 169.557 L 301.009 195 304.433 195 C 306.316 195, 308.564 194.294, 309.427 193.430 C 310.291 192.567, 311.272 190.763, 311.609 189.423 L 312.220 186.985 310.504 184.365 C 309.559 182.924, 298.195 171.002, 285.250 157.872 C 272.305 144.743, 261.199 134, 260.569 134 C 259.940 134, 257.192 136.276, 254.462 139.057 M 209.226 184.272 L 203.996 189.567 222.309 207.783 L 240.623 226 242.589 226 C 243.670 226, 245.587 225.277, 246.849 224.393 C 248.111 223.509, 249.499 221.824, 249.934 220.648 C 250.369 219.472, 250.327 217.368, 249.841 215.972 C 249.354 214.576, 241.193 205.681, 231.706 196.205 L 214.455 178.976 209.226 184.272 M 360 186.313 C 360 186.485, 361.462 187.948, 363.250 189.563 L 366.500 192.500 363.563 189.250 C 361.948 187.463, 360.485 186, 360.313 186 C 360.141 186, 360 186.141, 360 186.313 M 316.503 241.997 L 267.514 290.993 285.500 309 L 303.486 327.007 352.740 277.760 L 401.994 228.514 384.257 210.757 C 374.502 200.991, 366.289 193, 366.007 193 C 365.724 193, 343.447 215.049, 316.503 241.997" stroke="none" fill="#ccdfed" fill-rule="evenodd"/><path d="M 383.235 95.265 L 348.983 129.527 357.502 138.002 L 366.020 146.476 400.256 112.241 L 434.491 78.005 425.989 69.504 L 417.487 61.002 383.235 95.265 M 315.086 164.210 L 303.672 175.920 307.894 180.501 L 312.116 185.081 311.808 188.691 L 311.500 192.301 308.837 194.281 L 306.174 196.261 303.528 195.596 C 302.073 195.231, 298.970 193.170, 296.634 191.017 L 292.387 187.102 260.185 219.315 L 227.984 251.528 236.254 259.755 L 244.525 267.983 293.739 218.741 L 342.953 169.500 334.727 161 L 326.500 152.500 315.086 164.210 M 309.496 235.250 L 260.500 284.500 309.750 235.504 C 336.837 208.556, 359 186.393, 359 186.254 C 359 186.114, 358.886 186, 358.746 186 C 358.607 186, 336.444 208.162, 309.496 235.250" stroke="none" fill="#cccccc" fill-rule="evenodd"/><path d="M 425.995 69.258 L 434.472 78.017 400.228 112.272 L 365.983 146.527 374.255 154.756 L 382.526 162.985 417.009 128.491 L 451.491 93.998 434.505 77.249 C 425.162 68.037, 421.333 64.441, 425.995 69.258 M 334.752 160.996 L 343.004 169.489 293.492 219.008 L 243.980 268.527 251.995 276.495 L 260.010 284.463 309.772 234.738 L 359.534 185.012 343.017 168.758 C 333.933 159.818, 330.213 156.325, 334.752 160.996 M 388.500 215 C 395.634 222.150, 401.696 228, 401.971 228 C 402.246 228, 396.634 222.150, 389.500 215 C 382.366 207.850, 376.304 202, 376.029 202 C 375.754 202, 381.366 207.850, 388.500 215" stroke="none" fill="#b3b3b3" fill-rule="evenodd"/><path d="M 213.462 345.006 L 160.424 398 155.974 398 L 151.523 398 168.011 414.602 C 177.080 423.733, 185.850 431.793, 187.500 432.511 C 189.150 433.230, 191.850 433.579, 193.500 433.287 L 196.500 432.756 249.250 380.150 C 278.262 351.216, 302 327.079, 302 326.511 C 302 325.943, 294.458 317.945, 285.239 308.739 C 276.021 299.533, 268.033 292.003, 267.489 292.006 C 266.945 292.009, 242.633 315.859, 213.462 345.006" stroke="none" fill="#0fb0c0" fill-rule="evenodd"/><path d="M 304.500 131 C 316.040 142.550, 325.707 152, 325.982 152 C 326.257 152, 317.040 142.550, 305.500 131 C 293.960 119.450, 284.293 110, 284.018 110 C 283.743 110, 292.960 119.450, 304.500 131 M 254.462 139.057 L 249.500 144.115 275.255 169.557 L 301.009 195 304.433 195 C 306.316 195, 308.564 194.294, 309.427 193.430 C 310.291 192.567, 311.272 190.763, 311.609 189.423 L 312.220 186.985 310.504 184.365 C 309.559 182.924, 298.195 171.002, 285.250 157.872 C 272.305 144.743, 261.199 134, 260.569 134 C 259.940 134, 257.192 136.276, 254.462 139.057 M 209.226 184.272 L 203.996 189.567 222.309 207.783 L 240.623 226 242.589 226 C 243.670 226, 245.587 225.277, 246.849 224.393 C 248.111 223.509, 249.499 221.824, 249.934 220.648 C 250.369 219.472, 250.327 217.368, 249.841 215.972 C 249.354 214.576, 241.193 205.681, 231.706 196.205 L 214.455 178.976 209.226 184.272 M 360 186.313 C 360 186.485, 361.462 187.948, 363.250 189.563 L 366.500 192.500 363.563 189.250 C 361.948 187.463, 360.485 186, 360.313 186 C 360.141 186, 360 186.141, 360 186.313 M 316.503 241.997 L 267.514 290.993 285.500 309 L 303.486 327.007 352.740 277.760 L 401.994 228.514 384.257 210.757 C 374.502 200.991, 366.289 193, 366.007 193 C 365.724 193, 343.447 215.049, 316.503 241.997" stroke="none" fill="#ccdfed" fill-rule="evenodd"/><path d="M 132.881 260.750 C 104.494 289.212, 80.533 313.613, 79.634 314.973 C 78.735 316.332, 78 319.241, 78 321.435 L 78 325.426 105.730 352.963 L 133.460 380.500 106.230 352.958 L 79 325.416 79 321.017 L 79 316.617 95.983 299.559 L 112.966 282.500 130.410 299.917 L 147.855 317.333 150.983 317.333 L 154.111 317.333 156.222 315.222 L 158.333 313.111 158.333 309.983 L 158.333 306.855 140.924 289.424 L 123.514 271.993 141.255 254.252 L 158.996 236.511 184.255 261.755 L 209.514 287 212.757 287 C 214.667 287, 216.822 286.178, 218 285 C 219.168 283.832, 220 281.667, 220 279.795 L 220 276.590 194.775 251.294 L 169.550 225.997 177.510 217.990 L 185.470 209.983 214.985 239.241 L 244.500 268.500 215.006 238.750 C 198.785 222.387, 185.283 209, 185.003 209 C 184.722 209, 161.267 232.287, 132.881 260.750 M 263 287.500 C 264.866 289.425, 266.617 291, 266.892 291 C 267.167 291, 265.866 289.425, 264 287.500 C 262.134 285.575, 260.383 284, 260.108 284 C 259.833 284, 261.134 285.575, 263 287.500 M 250.496 379.250 L 198.500 431.500 250.750 379.504 C 279.488 350.906, 303 327.393, 303 327.254 C 303 327.114, 302.886 327, 302.746 327 C 302.607 327, 279.094 350.512, 250.496 379.250" stroke="none" fill="#21d8de" fill-rule="evenodd"/><path d="M 177.511 217.989 L 169.550 225.997 194.775 251.294 L 220 276.590 220 279.795 C 220 281.667, 219.168 283.832, 218 285 C 216.822 286.178, 214.667 287, 212.757 287 L 209.514 287 184.255 261.755 L 158.996 236.511 141.255 254.252 L 123.514 271.993 140.924 289.424 L 158.333 306.855 158.333 309.983 L 158.333 313.111 156.222 315.222 L 154.111 317.333 150.983 317.333 L 147.855 317.333 130.410 299.917 L 112.966 282.500 95.983 299.559 L 79 316.617 79 321.027 L 79 325.436 115.232 361.718 L 151.463 398 155.944 398 L 160.425 398 213.723 344.750 L 267.021 291.500 226.247 250.741 L 185.472 209.981 177.511 217.989" stroke="none" fill="#10c4c4" fill-rule="evenodd"/><path d="M 313.999 164.501 L 302.531 176.002 306.999 180.251 L 311.467 184.500 307.515 180.234 L 303.564 175.969 315.016 164.484 C 321.314 158.168, 326.242 153, 325.967 153 C 325.692 153, 320.307 158.175, 313.999 164.501 M 259.494 219.250 L 227.500 251.500 259.750 219.506 C 277.488 201.909, 292 187.397, 292 187.256 C 292 187.115, 291.885 187, 291.744 187 C 291.603 187, 277.091 201.512, 259.494 219.250 M 296 190.500 C 297.866 192.425, 299.617 194, 299.892 194 C 300.167 194, 298.866 192.425, 297 190.500 C 295.134 188.575, 293.383 187, 293.108 187 C 292.833 187, 294.134 188.575, 296 190.500 M 369.958 196.250 C 372.410 198.863, 374.548 201, 374.708 201 C 374.869 201, 375 200.869, 375 200.708 C 375 200.548, 372.863 198.410, 370.250 195.958 L 365.500 191.500 369.958 196.250" stroke="none" fill="#cdd5df" fill-rule="evenodd"/><path d="M 158 405.500 C 172.017 419.525, 183.710 431, 183.985 431 C 184.260 431, 173.017 419.525, 159 405.500 C 144.983 391.475, 133.290 380, 133.015 380 C 132.740 380, 143.983 391.475, 158 405.500" stroke="none" fill="#1faeb8" fill-rule="evenodd"/></svg>