<svg xmlns="http://www.w3.org/2000/svg" width="512" height="512" viewBox="0 0 512 512" version="1.1"><path d="M 248.420 336.500 C 248.419 347.500, 248.565 352.136, 248.745 346.803 C 248.924 341.470, 248.925 332.470, 248.746 326.803 C 248.568 321.136, 248.421 325.500, 248.420 336.500 M 344.196 336.250 C 344.393 355.621, 344.758 353.349, 345.240 329.748 C 345.383 322.735, 345.163 316.997, 344.750 316.998 C 344.337 316.999, 344.088 325.663, 344.196 336.250 M 80.578 321.362 C 76.114 325.572, 74 330.536, 74 336.811 C 74 342.648, 77.158 349.209, 81.627 352.655 L 84.711 355.033 82.105 349.769 C 78.378 342.238, 78.375 330.770, 82.097 323.248 C 83.525 320.361, 84.570 318, 84.418 318 C 84.267 318, 82.538 319.513, 80.578 321.362 M 162.033 320.626 C 152.320 328.799, 152.609 345.013, 162.605 352.658 L 165.711 355.033 163.105 349.769 C 159.378 342.238, 159.375 330.770, 163.097 323.248 C 164.525 320.361, 165.573 318, 165.424 318 C 165.275 318, 163.749 319.182, 162.033 320.626 M 323.249 321.056 C 314.510 329.247, 313.858 341.410, 321.694 350.083 C 323.667 352.266, 325.432 353.902, 325.617 353.717 C 325.801 353.532, 325.017 350.933, 323.874 347.940 C 321.122 340.737, 321.583 328.577, 324.848 322.250 C 326.054 319.913, 326.919 318.002, 326.770 318.005 C 326.622 318.007, 325.037 319.380, 323.249 321.056 M 329.417 336.500 C 329.418 346.950, 329.566 351.089, 329.746 345.698 C 329.926 340.307, 329.925 331.757, 329.744 326.698 C 329.563 321.639, 329.416 326.050, 329.417 336.500 M 404.622 320.208 C 401.244 322.726, 397.021 331.214, 397.015 335.500 C 397.008 340.817, 399.046 346.046, 402.707 350.097 C 404.672 352.273, 406.448 353.886, 406.652 353.681 C 406.857 353.476, 406.088 351.192, 404.943 348.605 C 401.350 340.482, 402.553 325.380, 407.281 319.250 C 408.643 317.483, 407.936 317.738, 404.622 320.208 M 240.676 323.066 C 233.749 331.158, 234.041 342.760, 241.375 350.842 C 242.544 352.130, 244.400 353.658, 245.500 354.237 C 247.391 355.234, 247.411 355.188, 245.854 353.396 C 241.070 347.885, 239.700 334.454, 242.960 325.011 C 244.002 321.992, 244.716 319.383, 244.546 319.213 C 244.377 319.043, 242.635 320.777, 240.676 323.066 M 248.419 427 C 248.419 437.725, 248.566 442.113, 248.746 436.750 C 248.925 431.387, 248.925 422.613, 248.746 417.250 C 248.566 411.887, 248.419 416.275, 248.419 427 M 344.196 427.250 C 344.393 446.621, 344.758 444.349, 345.240 420.748 C 345.383 413.735, 345.163 407.997, 344.750 407.998 C 344.337 407.999, 344.088 416.663, 344.196 427.250 M 81.125 411.682 C 71.539 419.234, 71.804 436.080, 81.627 443.655 L 84.711 446.033 82.105 440.769 C 78.378 433.238, 78.375 421.770, 82.097 414.248 C 83.525 411.361, 84.650 409.005, 84.597 409.011 C 84.544 409.017, 82.981 410.219, 81.125 411.682 M 162.033 411.626 C 152.471 419.671, 152.768 436.281, 162.605 443.693 L 165.711 446.033 163.105 440.769 C 159.378 433.238, 159.375 421.770, 163.097 414.248 C 164.525 411.361, 165.573 409, 165.424 409 C 165.275 409, 163.749 410.182, 162.033 411.626 M 323.249 412.056 C 314.510 420.247, 313.858 432.410, 321.694 441.083 C 323.667 443.266, 325.432 444.902, 325.617 444.717 C 325.801 444.532, 325.017 441.933, 323.874 438.940 C 321.122 431.737, 321.583 419.577, 324.848 413.250 C 326.054 410.913, 326.919 409.002, 326.770 409.005 C 326.622 409.007, 325.037 410.380, 323.249 412.056 M 329.417 427.500 C 329.418 437.950, 329.566 442.089, 329.746 436.698 C 329.926 431.307, 329.925 422.757, 329.744 417.698 C 329.563 412.639, 329.416 417.050, 329.417 427.500 M 404.622 411.208 C 401.244 413.726, 397.021 422.214, 397.015 426.500 C 397.008 431.817, 399.046 437.046, 402.707 441.097 C 404.672 443.273, 406.448 444.886, 406.652 444.681 C 406.857 444.476, 406.088 442.192, 404.943 439.605 C 401.423 431.647, 402.611 415.788, 407.136 410.336 C 408.689 408.465, 407.967 408.716, 404.622 411.208 M 241.053 413.445 C 232.562 422.206, 234.588 438.235, 245.025 444.861 C 247.439 446.393, 247.460 446.384, 245.854 444.466 C 241.052 438.729, 239.702 425.451, 242.960 416.011 C 244.002 412.992, 244.744 410.411, 244.609 410.276 C 244.474 410.141, 242.874 411.567, 241.053 413.445" stroke="none" fill="#0395fd" fill-rule="evenodd"/><path d="M 494.456 326.500 C 494.456 348.500, 494.588 357.358, 494.749 346.183 C 494.910 335.009, 494.910 317.009, 494.749 306.183 C 494.587 295.358, 494.455 304.500, 494.456 326.500 M 311.437 311.250 L 308.500 314.500 311.750 311.563 C 314.779 308.825, 315.460 308, 314.687 308 C 314.515 308, 313.052 309.462, 311.437 311.250 M 102 336.500 C 102 347.722, 102.380 355, 102.965 355 C 104.954 355, 111.381 348.371, 113.135 344.509 C 116.597 336.888, 114.867 327.867, 108.774 321.774 C 102.174 315.174, 102 315.554, 102 336.500 M 183 336.500 C 183 349.601, 183.330 355, 184.132 355 C 184.754 355, 187.183 353.080, 189.530 350.733 C 196.415 343.848, 197.686 334.551, 192.905 326.044 C 191.120 322.869, 185.542 318, 183.688 318 C 183.310 318, 183 326.325, 183 336.500 M 264 336.500 C 264 348.483, 264.362 355, 265.026 355 C 265.591 355, 268.003 353.050, 270.387 350.666 C 278.822 342.230, 278.654 329.437, 270.005 321.624 C 267.799 319.631, 265.546 318, 264.997 318 C 264.370 318, 264 324.869, 264 336.500 M 345 336.500 C 345 346.675, 345.295 355, 345.656 355 C 347.467 355, 353.256 349.419, 355.009 345.982 C 357.471 341.157, 357.654 332.181, 355.389 327.407 C 353.769 323.994, 347.765 318, 345.965 318 C 345.380 318, 345 325.278, 345 336.500 M 426 336.526 L 426 355.051 429.004 353.498 C 436.417 349.664, 440.043 337.638, 436.546 328.481 C 435.037 324.530, 428.948 318, 426.772 318 C 426.347 318, 426 326.337, 426 336.526 M 220.272 336 C 220.272 338.475, 220.467 339.488, 220.706 338.250 C 220.944 337.012, 220.944 334.988, 220.706 333.750 C 220.467 332.512, 220.272 333.525, 220.272 336 M 453.252 336.500 C 453.263 338.700, 453.468 339.482, 453.707 338.238 C 453.946 336.994, 453.937 335.194, 453.687 334.238 C 453.437 333.282, 453.241 334.300, 453.252 336.500 M 494.456 436.500 C 494.456 458.500, 494.588 467.358, 494.749 456.183 C 494.910 445.009, 494.910 427.009, 494.749 416.183 C 494.587 405.358, 494.455 414.500, 494.456 436.500 M 311.437 402.250 L 308.500 405.500 311.750 402.563 C 314.779 399.825, 315.460 399, 314.687 399 C 314.515 399, 313.052 400.462, 311.437 402.250 M 102 427.500 C 102 438.722, 102.380 446, 102.965 446 C 104.954 446, 111.381 439.371, 113.135 435.509 C 116.597 427.888, 114.867 418.867, 108.774 412.774 C 102.174 406.174, 102 406.554, 102 427.500 M 183 427.500 C 183 440.601, 183.330 446, 184.132 446 C 184.754 446, 187.183 444.080, 189.530 441.733 C 196.505 434.758, 197.690 425.558, 192.746 416.762 C 190.887 413.454, 185.657 409, 183.632 409 C 183.284 409, 183 417.325, 183 427.500 M 264 427.500 C 264 439.483, 264.362 446, 265.026 446 C 265.591 446, 268.022 444.030, 270.430 441.623 C 278.755 433.297, 278.560 420.352, 269.991 412.611 C 267.793 410.625, 265.546 409, 264.997 409 C 264.370 409, 264 415.869, 264 427.500 M 345 427.500 C 345 437.675, 345.295 446, 345.656 446 C 347.467 446, 353.256 440.419, 355.009 436.982 C 357.471 432.157, 357.654 423.181, 355.389 418.407 C 353.769 414.994, 347.765 409, 345.965 409 C 345.380 409, 345 416.278, 345 427.500 M 426 427.526 L 426 446.051 429.004 444.498 C 436.417 440.664, 440.043 428.638, 436.546 419.481 C 435.037 415.530, 428.948 409, 426.772 409 C 426.347 409, 426 417.337, 426 427.526 M 220.272 427 C 220.272 429.475, 220.467 430.488, 220.706 429.250 C 220.944 428.012, 220.944 425.988, 220.706 424.750 C 220.467 423.512, 220.272 424.525, 220.272 427 M 453.252 427.500 C 453.263 429.700, 453.468 430.482, 453.707 429.238 C 453.946 427.994, 453.937 426.194, 453.687 425.238 C 453.437 424.282, 453.241 425.300, 453.252 427.500" stroke="none" fill="#60b8ff" fill-rule="evenodd"/><path d="M 425.419 336 C 425.419 346.725, 425.566 351.113, 425.746 345.750 C 425.925 340.387, 425.925 331.613, 425.746 326.250 C 425.566 320.887, 425.419 325.275, 425.419 336 M 83.010 321.225 C 78.404 328.798, 78.089 341.840, 82.311 350.112 C 86.483 358.285, 87 356.793, 87 336.583 C 87 324.682, 86.635 318, 85.985 318 C 85.427 318, 84.088 319.451, 83.010 321.225 M 164.045 321.166 C 159.308 328.956, 158.938 341.315, 163.187 349.794 C 167.479 358.359, 168 356.929, 168 336.583 C 168 324.682, 167.635 318, 166.985 318 C 166.427 318, 165.104 319.425, 164.045 321.166 M 243.794 322.734 C 239.571 332.279, 240.819 348.811, 246.123 353.612 C 247.953 355.267, 248 354.838, 248 336.655 C 248 324.223, 247.648 318, 246.944 318 C 246.363 318, 244.945 320.130, 243.794 322.734 M 324.848 322.250 C 321.554 328.632, 321.131 340.711, 323.940 348.157 C 325.114 351.269, 326.733 354.067, 327.537 354.376 C 328.788 354.856, 329 352.266, 329 336.469 C 329 325.078, 328.625 318, 328.020 318 C 327.482 318, 326.054 319.913, 324.848 322.250 M 407.281 319.250 C 402.264 325.755, 401.325 340.662, 405.376 349.511 C 406.758 352.530, 408.364 355, 408.945 355 C 409.647 355, 410 348.813, 410 336.500 C 410 326.325, 409.605 318, 409.122 318 C 408.640 318, 407.811 318.563, 407.281 319.250 M 425.419 427 C 425.419 437.725, 425.566 442.113, 425.746 436.750 C 425.925 431.387, 425.925 422.613, 425.746 417.250 C 425.566 411.887, 425.419 416.275, 425.419 427 M 83.010 412.225 C 78.404 419.798, 78.089 432.840, 82.311 441.112 C 86.483 449.285, 87 447.793, 87 427.583 C 87 415.682, 86.635 409, 85.985 409 C 85.427 409, 84.088 410.451, 83.010 412.225 M 164.045 412.166 C 159.308 419.956, 158.938 432.315, 163.187 440.794 C 167.479 449.359, 168 447.929, 168 427.583 C 168 415.682, 167.635 409, 166.985 409 C 166.427 409, 165.104 410.425, 164.045 412.166 M 243.794 413.734 C 239.571 423.279, 240.819 439.811, 246.123 444.612 C 247.953 446.267, 248 445.838, 248 427.655 C 248 415.223, 247.648 409, 246.944 409 C 246.363 409, 244.945 411.130, 243.794 413.734 M 324.848 413.250 C 321.554 419.632, 321.131 431.711, 323.940 439.157 C 325.114 442.269, 326.733 445.067, 327.537 445.376 C 328.788 445.856, 329 443.266, 329 427.469 C 329 416.078, 328.625 409, 328.020 409 C 327.482 409, 326.054 410.913, 324.848 413.250 M 407.136 410.336 C 402.319 416.140, 401.404 431.834, 405.376 440.511 C 406.758 443.530, 408.364 446, 408.945 446 C 409.647 446, 410 439.813, 410 427.500 C 410 417.325, 409.605 409, 409.122 409 C 408.640 409, 407.746 409.601, 407.136 410.336" stroke="none" fill="#22a7ff" fill-rule="evenodd"/><path d="M 160.844 1.337 C 158.833 2.086, 155.233 3.862, 152.844 5.283 C 150.455 6.705, 117.155 39.285, 78.845 77.684 C 23.174 133.483, 8.618 148.604, 6.345 153 C 3.748 158.020, 3.500 159.416, 3.500 169 C 3.500 184.811, 3.409 184.680, 39.331 220.750 L 69.456 251 54.478 251.006 C 46.240 251.009, 36.861 251.444, 33.636 251.972 C 22.014 253.875, 12.663 260.600, 6.927 271.179 L 3.500 277.500 3.500 381.500 L 3.500 485.500 6.170 491.196 C 9.576 498.463, 16.537 505.424, 23.804 508.830 L 29.500 511.500 256.500 511.500 L 483.500 511.500 488.500 509.044 C 495.914 505.403, 504.186 496.701, 507.085 489.493 C 509.483 483.532, 509.498 483.272, 509.798 440.651 C 510.125 394.212, 510.115 394.110, 504.692 392.067 C 502.074 391.080, 497.549 393.106, 496.030 395.945 C 495.373 397.172, 494.998 412.456, 494.994 438.184 C 494.991 464.256, 494.602 479.913, 493.895 482.500 C 492.203 488.684, 484.587 495.530, 477.848 496.924 C 474.012 497.717, 410.440 497.955, 253 497.765 C 40.907 497.509, 33.382 497.437, 30 495.633 C 25.083 493.010, 22.147 490.135, 19.653 485.500 L 17.500 481.500 17.500 382 L 17.500 282.500 19.721 278.347 C 22.805 272.580, 28.381 268.272, 34.443 266.974 C 38.012 266.209, 104.250 265.980, 259.500 266.195 C 462.094 266.476, 479.739 266.631, 482.521 268.157 C 486.380 270.274, 490.726 274.620, 492.843 278.479 C 494.290 281.117, 494.563 286.983, 495 324.716 C 495.547 372.033, 495.307 370.311, 501.551 371.560 C 503.740 371.998, 505.255 371.614, 507.037 370.170 L 509.500 368.176 509.500 324.338 L 509.500 280.500 507.088 274.500 C 503.753 266.206, 494.679 257.170, 486.500 253.998 C 481.067 251.892, 478.516 251.632, 459.500 251.254 L 438.500 250.836 372.482 184.918 C 314.506 127.029, 306.101 119.002, 303.482 119.015 C 301.842 119.024, 300.041 119.361, 299.480 119.765 C 298.135 120.734, 296 125.650, 296 127.778 C 296 128.704, 323.558 157.033, 357.239 190.731 L 418.478 252 365.646 252 L 312.815 252 317.354 246.952 C 323.799 239.783, 326.268 232.646, 325.816 222.500 C 325.207 208.864, 318.619 198.430, 306.784 192.357 C 299.266 188.499, 286.933 187.891, 278.753 190.975 C 270.777 193.982, 263.088 201.230, 259.410 209.209 C 256.932 214.583, 256.509 216.739, 256.505 224 C 256.499 233.870, 259.109 240.795, 265.502 247.870 L 269.233 252 233.787 252 L 198.341 252 201.420 245.787 C 204.159 240.261, 204.493 238.629, 204.437 231.037 C 204.386 224.055, 203.907 221.498, 201.810 217 C 198.028 208.891, 192.895 203.565, 185.223 199.792 C 179.144 196.802, 177.703 196.501, 169.515 196.515 C 162.413 196.526, 159.499 196.989, 155.783 198.694 C 149.571 201.544, 141.389 209.299, 138.428 215.142 C 133.577 224.716, 133.623 237.376, 138.544 247.088 L 141.034 252 116.262 252 L 91.489 252 56.342 216.750 C 37.010 197.362, 20.402 179.925, 19.435 178 C 17.137 173.424, 17.136 164.577, 19.434 160 C 21.881 155.127, 157.433 19.425, 162.500 16.775 C 167.558 14.130, 176.105 13.975, 181 16.439 C 182.925 17.408, 204.986 38.631, 230.025 63.600 C 278.753 112.193, 277.616 111.263, 283.535 107.385 C 285.410 106.157, 286 104.896, 286 102.120 C 286 98.639, 283.873 96.349, 239.750 52.333 C 187.018 -0.271, 188.447 0.852, 173.500 0.304 C 167.596 0.087, 163.242 0.442, 160.844 1.337 M 169 75.315 C 157.956 78.501, 149.536 85.225, 144.980 94.500 C 142.872 98.791, 142.521 100.918, 142.512 109.500 C 142.498 121.632, 144.542 126.707, 152.647 134.661 C 161.358 143.208, 173.433 146.529, 185.067 143.577 C 213.957 136.246, 221.473 99.916, 197.899 81.549 C 189.922 75.335, 177.913 72.743, 169 75.315 M 170.759 89.370 C 165.088 91.474, 162.269 93.637, 159.248 98.201 C 156.886 101.771, 156.500 103.371, 156.500 109.594 C 156.500 113.575, 156.853 117.187, 157.285 117.618 C 157.717 118.050, 164.347 112.139, 172.018 104.482 C 182.349 94.170, 185.600 90.356, 184.555 89.771 C 181.758 88.205, 174.469 87.994, 170.759 89.370 M 181.647 114.851 L 167.794 128.732 171.046 129.866 C 176.168 131.652, 180.215 131.216, 186.064 128.250 C 193.645 124.406, 197.288 118.959, 197.782 110.729 C 198.031 106.584, 197.711 103.909, 196.828 102.735 C 195.621 101.130, 194.240 102.232, 181.647 114.851 M 228.650 132.126 C 217.786 133.777, 206.271 142.625, 201.767 152.783 C 199.282 158.388, 198.323 169.819, 199.861 175.500 C 201.613 181.970, 207.130 190.149, 212.500 194.238 C 230.476 207.926, 255.371 202.223, 265.240 182.157 C 268.189 176.163, 268.500 174.669, 268.500 166.515 C 268.500 158.682, 268.136 156.758, 265.721 151.840 C 258.722 137.589, 244.048 129.785, 228.650 132.126 M 101.005 140.668 C 78.756 148.453, 70.162 176.847, 84.572 194.970 C 92.361 204.768, 103.073 209.621, 115.019 208.767 C 131.497 207.588, 144.071 196.025, 147.205 179.171 C 150.107 163.570, 139.865 146.481, 124.203 140.792 C 118.273 138.637, 106.981 138.577, 101.005 140.668 M 228.738 146.488 C 218.664 149.046, 213.500 156.053, 213.500 167.167 C 213.500 170.833, 213.853 174.187, 214.285 174.618 C 214.717 175.050, 221.339 169.147, 229 161.500 C 236.661 153.853, 242.796 147.463, 242.633 147.299 C 241.336 146.003, 232.647 145.495, 228.738 146.488 M 105.030 154.059 C 96.663 157.579, 91.688 165.112, 91.675 174.283 C 91.661 184.266, 92.521 183.970, 107.729 168.762 C 115.255 161.236, 121.077 154.744, 120.668 154.334 C 119.466 153.133, 107.723 152.926, 105.030 154.059 M 238.634 171.866 L 224.794 185.732 228.046 186.866 C 240.802 191.313, 254.939 180.879, 254.964 167 C 254.973 162.083, 254.137 158, 253.120 158 C 252.764 158, 246.245 164.240, 238.634 171.866 M 117.588 178.911 C 104.214 192.312, 103.815 192.831, 106.009 194.005 C 107.367 194.731, 110.638 195.050, 114.145 194.796 C 125.227 193.994, 133.459 185.121, 133.439 174 C 133.420 163.365, 132.964 163.506, 117.588 178.911 M 282.500 204.604 C 275.314 208.518, 270.068 216.094, 270.022 222.625 C 269.988 227.470, 271.132 232, 272.389 232 C 274.112 232, 300.516 205.183, 299.648 204.314 C 298.047 202.714, 285.584 202.924, 282.500 204.604 M 160.204 212.073 C 151.806 216.338, 147.170 226.031, 149.138 235.206 L 150.223 240.268 164.318 226.173 C 172.070 218.421, 178.077 211.744, 177.668 211.334 C 177.258 210.925, 174.128 210.432, 170.712 210.240 C 165.823 209.965, 163.585 210.355, 160.204 212.073 M 296.236 228.263 C 288.956 235.558, 283 242.031, 283 242.647 C 283 245.458, 293.779 245.754, 299.500 243.100 C 304.176 240.930, 309.429 235.688, 310.939 231.685 C 312.654 227.134, 312.059 215, 310.119 215 C 309.763 215, 303.516 220.969, 296.236 228.263 M 174.548 235.939 C 166.875 243.634, 160.913 250.246, 161.299 250.633 C 162.942 252.276, 173.131 252.222, 177.515 250.547 C 187.533 246.722, 193.639 233.787, 189.705 224.724 L 188.500 221.948 174.548 235.939 M 85.929 302.305 C 59.238 309.864, 50.576 342.028, 70.082 361.149 C 87.505 378.228, 115.315 373.356, 126.161 351.324 C 128.981 345.597, 129.387 343.758, 129.408 336.639 C 129.429 329.826, 128.978 327.504, 126.642 322.390 C 119.624 307.019, 101.265 297.963, 85.929 302.305 M 167.746 302.024 C 157.209 304.680, 147.992 312.409, 143.329 322.500 C 141.041 327.451, 140.551 329.902, 140.528 336.521 C 140.503 343.596, 140.887 345.328, 143.781 351.206 C 157.720 379.520, 197.921 377.384, 208.620 347.761 C 210.893 341.469, 210.632 330.666, 208.043 323.798 C 202.196 308.295, 183.326 298.099, 167.746 302.024 M 247 302.532 C 235.343 305.761, 224.737 316.592, 221.981 328.079 C 220.416 334.603, 221.237 344.054, 223.910 350.291 C 226.508 356.352, 234.178 364.550, 240.020 367.510 C 257.557 376.397, 278.358 369.558, 287.688 351.838 C 290.229 347.013, 290.497 345.540, 290.488 336.500 C 290.475 324.568, 288.448 319.393, 280.768 311.688 C 271.866 302.757, 258.887 299.238, 247 302.532 M 326.909 302.833 C 310.876 308.144, 301.395 321.631, 302.189 338 C 302.849 351.625, 310.118 362.353, 322.671 368.227 C 328.167 370.799, 330.359 371.263, 337 371.263 C 343.613 371.263, 345.831 370.797, 351.170 368.287 C 371.288 358.828, 378.060 335.022, 365.870 316.617 C 357.735 304.336, 340.637 298.287, 326.909 302.833 M 408.929 302.367 C 399.037 305.035, 390.547 312.199, 385.755 321.924 C 383.870 325.748, 383.500 328.143, 383.500 336.500 C 383.500 345.993, 383.674 346.821, 386.930 352.826 C 400.708 378.239, 436.449 377.392, 449.440 351.344 C 458.998 332.178, 447.635 307.958, 426.540 302.533 C 419.515 300.726, 415.168 300.685, 408.929 302.367 M 82.226 319.131 C 78.378 321.594, 74.497 327.939, 73.556 333.304 C 72.451 339.604, 75.212 347.019, 80.465 351.861 C 87.995 358.802, 88 358.792, 88 336.500 C 88 315.175, 88.071 315.388, 82.226 319.131 M 102 336.500 C 102 347.225, 102.313 356, 102.696 356 C 103.079 356, 105.025 354.869, 107.020 353.486 C 118.246 345.707, 118.380 327.087, 107.265 319.534 C 105.214 318.140, 103.190 317, 102.768 317 C 102.346 317, 102 325.775, 102 336.500 M 162.898 319.289 C 154.524 324.929, 151.871 338.010, 157.245 347.163 C 159.561 351.109, 165.164 356, 167.368 356 C 167.716 356, 168 347.225, 168 336.500 C 168 325.775, 167.617 317, 167.148 317 C 166.679 317, 164.767 318.030, 162.898 319.289 M 182 336.500 C 182 359.033, 182.094 359.205, 190.016 351.250 C 193.700 347.552, 194.984 345.386, 195.816 341.468 C 197.697 332.614, 194.223 323.155, 187.582 319.050 C 185.757 317.923, 183.755 317, 183.132 317 C 182.328 317, 182 322.651, 182 336.500 M 244.290 318.965 C 242.525 320.041, 239.825 322.819, 238.290 325.138 C 235.897 328.754, 235.500 330.360, 235.500 336.427 C 235.500 342.114, 235.961 344.241, 237.852 347.283 C 239.974 350.696, 246.290 356, 248.232 356 C 248.654 356, 249 347.225, 249 336.500 C 249 325.775, 248.662 317.002, 248.250 317.004 C 247.838 317.006, 246.056 317.888, 244.290 318.965 M 263 336.500 C 263 347.225, 263.247 356, 263.550 356 C 264.943 356, 269.708 352.961, 271.633 350.845 C 275.346 346.764, 277 342.326, 277 336.451 C 277 329.571, 275.036 325.169, 269.894 320.523 C 263.055 314.344, 263 314.471, 263 336.500 M 323.599 320.179 C 312.473 329.350, 313.897 348.194, 326.200 354.595 C 327.686 355.368, 329.148 356, 329.450 356 C 329.753 356, 330 347.225, 330 336.500 C 330 321.386, 329.714 317, 328.728 317 C 328.028 317, 325.720 318.431, 323.599 320.179 M 344 336.500 C 344 347.225, 344.247 356, 344.550 356 C 345.925 356, 350.707 352.968, 352.702 350.831 C 358.020 345.136, 359.507 334.914, 356.107 327.429 C 354.254 323.349, 347.658 317, 345.272 317 C 344.286 317, 344 321.386, 344 336.500 M 404.106 320.523 C 401.961 322.461, 399.484 325.567, 398.603 327.425 C 395.390 334.195, 397.145 345.313, 402.298 350.831 C 404.293 352.968, 409.075 356, 410.450 356 C 410.753 356, 411 347.225, 411 336.500 C 411 314.471, 410.945 314.344, 404.106 320.523 M 425 336.500 C 425 347.225, 425.382 356, 425.850 356 C 428.023 356, 434.849 349.839, 436.477 346.406 C 440.807 337.282, 439.277 327.878, 432.385 321.250 C 425.027 314.175, 425 314.230, 425 336.500 M 85.929 393.305 C 59.238 400.864, 50.576 433.028, 70.082 452.149 C 87.505 469.228, 115.315 464.356, 126.161 442.324 C 128.981 436.597, 129.387 434.758, 129.408 427.639 C 129.429 420.826, 128.978 418.504, 126.642 413.390 C 119.624 398.019, 101.265 388.963, 85.929 393.305 M 167.746 393.024 C 157.209 395.680, 147.992 403.409, 143.329 413.500 C 141.041 418.451, 140.551 420.902, 140.528 427.521 C 140.503 434.596, 140.887 436.328, 143.781 442.206 C 157.709 470.498, 197.929 468.361, 208.620 438.761 C 210.893 432.469, 210.632 421.666, 208.043 414.798 C 202.196 399.295, 183.326 389.099, 167.746 393.024 M 247 393.532 C 235.343 396.761, 224.737 407.592, 221.981 419.079 C 220.416 425.603, 221.237 435.054, 223.910 441.291 C 226.508 447.352, 234.178 455.550, 240.020 458.510 C 257.557 467.397, 278.358 460.558, 287.688 442.838 C 290.229 438.013, 290.497 436.540, 290.488 427.500 C 290.479 419.053, 290.115 416.768, 288.144 412.784 C 280.388 397.103, 263.177 389.049, 247 393.532 M 326.909 393.833 C 310.876 399.144, 301.395 412.631, 302.189 429 C 302.848 442.598, 310.162 453.331, 322.830 459.287 C 328.169 461.797, 330.387 462.263, 337 462.263 C 343.613 462.263, 345.831 461.797, 351.170 459.287 C 371.288 449.828, 378.060 426.022, 365.870 407.617 C 357.735 395.336, 340.637 389.287, 326.909 393.833 M 408.929 393.367 C 399.037 396.035, 390.547 403.199, 385.755 412.924 C 383.870 416.748, 383.500 419.143, 383.500 427.500 C 383.500 436.993, 383.674 437.821, 386.930 443.826 C 394.307 457.432, 408.954 464.604, 423.771 461.865 C 448.697 457.257, 460.871 429.010, 446.929 408.131 C 438.562 395.602, 423.027 389.566, 408.929 393.367 M 82.226 410.131 C 78.378 412.594, 74.497 418.939, 73.556 424.304 C 72.451 430.604, 75.212 438.019, 80.465 442.861 C 87.995 449.802, 88 449.792, 88 427.500 C 88 406.175, 88.071 406.388, 82.226 410.131 M 102 427.500 C 102 438.225, 102.313 447, 102.696 447 C 104.726 447, 110.957 441.427, 113.054 437.736 C 118.076 428.896, 115.228 415.762, 107.102 410.289 C 105.233 409.030, 103.321 408, 102.852 408 C 102.383 408, 102 416.775, 102 427.500 M 162.898 410.289 C 154.524 415.929, 151.871 429.010, 157.245 438.163 C 159.561 442.109, 165.164 447, 167.368 447 C 167.716 447, 168 438.225, 168 427.500 C 168 416.775, 167.617 408, 167.148 408 C 166.679 408, 164.767 409.030, 162.898 410.289 M 182 427.500 C 182 450.033, 182.094 450.205, 190.016 442.250 C 193.700 438.552, 194.984 436.386, 195.816 432.468 C 197.697 423.614, 194.223 414.155, 187.582 410.050 C 185.757 408.923, 183.755 408, 183.132 408 C 182.328 408, 182 413.651, 182 427.500 M 244.290 409.965 C 242.525 411.041, 239.826 413.817, 238.293 416.134 C 235.953 419.669, 235.505 421.403, 235.503 426.923 C 235.499 435.051, 237.804 440.121, 243.319 444.116 C 245.509 445.702, 247.683 447, 248.150 447 C 248.618 447, 249 438.225, 249 427.500 C 249 416.775, 248.662 408.002, 248.250 408.004 C 247.838 408.006, 246.056 408.888, 244.290 409.965 M 263 427.500 C 263 438.225, 263.247 447, 263.550 447 C 264.943 447, 269.708 443.961, 271.633 441.845 C 275.346 437.764, 277 433.326, 277 427.451 C 277 420.571, 275.036 416.169, 269.894 411.523 C 263.055 405.344, 263 405.471, 263 427.500 M 323.599 411.179 C 312.473 420.350, 313.897 439.194, 326.200 445.595 C 327.686 446.368, 329.148 447, 329.450 447 C 329.753 447, 330 438.225, 330 427.500 C 330 412.386, 329.714 408, 328.728 408 C 328.028 408, 325.720 409.431, 323.599 411.179 M 344 427.500 C 344 438.225, 344.247 447, 344.550 447 C 345.925 447, 350.707 443.968, 352.702 441.831 C 358.020 436.136, 359.507 425.914, 356.107 418.429 C 354.254 414.349, 347.658 408, 345.272 408 C 344.286 408, 344 412.386, 344 427.500 M 404.106 411.523 C 398.964 416.169, 397 420.571, 397 427.451 C 397 433.326, 398.654 437.764, 402.367 441.845 C 404.292 443.961, 409.057 447, 410.450 447 C 410.753 447, 411 438.225, 411 427.500 C 411 405.471, 410.945 405.344, 404.106 411.523 M 425 427.500 C 425 438.225, 425.382 447, 425.850 447 C 428.023 447, 434.849 440.839, 436.477 437.406 C 440.807 428.282, 439.277 418.878, 432.385 412.250 C 425.027 405.175, 425 405.230, 425 427.500" stroke="none" fill="#000000" fill-rule="evenodd"/><path d="M 30.429 268.893 C 25.547 271.110, 20.707 276.697, 19.141 281.922 C 17.641 286.930, 17.522 475.740, 19.016 481.118 C 21.779 491.064, 28.935 496.095, 41.341 496.814 L 49.315 497.275 46.245 493.388 C 39.728 485.134, 40 489.984, 40 382.124 C 40 274.838, 39.799 278.566, 45.991 270.862 L 49.094 267 41.797 267.022 C 36.873 267.037, 33.176 267.645, 30.429 268.893 M 253.750 300.706 C 254.988 300.944, 257.012 300.944, 258.250 300.706 C 259.488 300.467, 258.475 300.272, 256 300.272 C 253.525 300.272, 252.512 300.467, 253.750 300.706 M 334.750 300.706 C 335.988 300.944, 338.012 300.944, 339.250 300.706 C 340.488 300.467, 339.475 300.272, 337 300.272 C 334.525 300.272, 333.512 300.467, 334.750 300.706 M 149.437 311.250 L 146.500 314.500 149.750 311.563 C 151.537 309.948, 153 308.485, 153 308.313 C 153 307.540, 152.175 308.221, 149.437 311.250 M 334.750 391.706 C 335.988 391.944, 338.012 391.944, 339.250 391.706 C 340.488 391.467, 339.475 391.272, 337 391.272 C 334.525 391.272, 333.512 391.467, 334.750 391.706 M 149.437 402.250 L 146.500 405.500 149.750 402.563 C 151.537 400.948, 153 399.485, 153 399.313 C 153 398.540, 152.175 399.221, 149.437 402.250" stroke="none" fill="#b4dbff" fill-rule="evenodd"/><path d="M 163.500 16.855 C 160.852 18.137, 135.959 42.395, 89.831 88.646 C 16.497 162.176, 18.011 160.481, 18.011 169 C 18.011 177.199, 18.623 177.945, 56.318 215.750 L 92.463 252 116.232 252 C 129.304 252, 140.001 251.662, 140.001 251.250 C 140.002 250.838, 133.140 250.632, 124.751 250.792 L 109.500 251.085 76.886 218.292 C 40.404 181.610, 40.465 181.694, 40.539 168.500 C 40.569 163.218, 41.143 160.395, 42.881 157 C 44.480 153.874, 65.829 131.825, 112.799 84.790 C 149.987 47.550, 180.131 16.798, 179.786 16.453 C 179.441 16.107, 176.535 15.621, 173.329 15.371 C 168.912 15.028, 166.531 15.387, 163.500 16.855 M 215.685 251.748 C 225.138 251.912, 240.888 251.913, 250.685 251.749 C 260.483 251.585, 252.750 251.451, 233.500 251.450 C 214.250 251.450, 206.233 251.584, 215.685 251.748 M 339.820 251.749 C 354.296 251.906, 377.696 251.906, 391.820 251.749 C 405.944 251.593, 394.100 251.465, 365.500 251.465 C 336.900 251.465, 325.344 251.593, 339.820 251.749" stroke="none" fill="#ffd500" fill-rule="evenodd"/><path d="M 229.500 64 C 253.695 88.200, 273.716 108, 273.991 108 C 274.266 108, 254.695 88.200, 230.500 64 C 206.305 39.800, 186.284 20, 186.009 20 C 185.734 20, 205.305 39.800, 229.500 64 M 89.497 88.250 L 22.500 155.500 89.750 88.503 C 152.265 26.223, 157.449 21, 156.747 21 C 156.608 21, 126.346 51.263, 89.497 88.250 M 182.047 115.452 L 168.678 128.849 172.403 129.548 C 185.381 131.982, 197.024 122.532, 196.985 109.593 C 196.976 106.792, 196.620 103.950, 196.193 103.278 C 195.667 102.450, 191.100 106.381, 182.047 115.452 M 212.252 109.500 C 212.263 111.700, 212.468 112.482, 212.707 111.238 C 212.946 109.994, 212.937 108.194, 212.687 107.238 C 212.437 106.282, 212.241 107.300, 212.252 109.500 M 356.500 191 C 389.497 224, 416.719 251, 416.994 251 C 417.269 251, 390.497 224, 357.500 191 C 324.503 158, 297.281 131, 297.006 131 C 296.731 131, 323.503 158, 356.500 191 M 239.125 172.375 C 226.956 184.569, 226.012 185.771, 228.155 186.345 C 241.295 189.863, 254.255 180.153, 254.152 166.868 C 254.081 157.701, 253.588 157.882, 239.125 172.375 M 118.063 179.437 C 105.021 192.506, 104.728 192.894, 107.381 193.559 C 119.878 196.696, 133.121 186.606, 132.930 174.093 C 132.788 164.802, 132.601 164.869, 118.063 179.437 M 57.500 218 C 76.194 236.700, 91.714 252, 91.989 252 C 92.264 252, 77.194 236.700, 58.500 218 C 39.806 199.300, 24.286 184, 24.011 184 C 23.736 184, 38.806 199.300, 57.500 218 M 110.762 209.707 C 112.006 209.946, 113.806 209.937, 114.762 209.687 C 115.718 209.437, 114.700 209.241, 112.500 209.252 C 110.300 209.263, 109.518 209.468, 110.762 209.707 M 296.125 229.375 C 285.732 239.789, 283.180 242.855, 284.488 243.357 C 287.106 244.362, 295.573 244.112, 298.685 242.939 C 302.205 241.611, 307.671 236.452, 309.744 232.500 C 311.525 229.106, 312.010 218.610, 310.458 217.058 C 309.762 216.362, 305.187 220.294, 296.125 229.375 M 255.252 224.500 C 255.263 226.700, 255.468 227.482, 255.707 226.238 C 255.946 224.994, 255.937 223.194, 255.687 222.238 C 255.437 221.282, 255.241 222.300, 255.252 224.500 M 175.127 236.373 C 166.757 244.760, 162.209 250.011, 162.928 250.456 C 163.559 250.846, 166.437 251.186, 169.324 251.212 C 180.983 251.317, 190.118 242.259, 189.930 230.782 C 189.783 221.848, 189.524 221.946, 175.127 236.373" stroke="none" fill="#ff646f" fill-rule="evenodd"/><path d="M 163.061 94.564 C 158.104 99.043, 155.558 105.387, 156.251 111.538 C 156.889 117.195, 157.459 117.799, 159.994 115.506 C 161.558 114.090, 162 112.426, 162 107.947 C 162 103.522, 162.677 100.917, 164.947 96.602 C 166.567 93.521, 167.694 91, 167.449 91 C 167.205 91, 165.231 92.604, 163.061 94.564 M 181.986 114.750 L 168.500 128.500 182.250 115.014 C 195.023 102.486, 196.453 101, 195.736 101 C 195.591 101, 189.403 107.188, 181.986 114.750 M 223.366 148.919 C 216.668 153.003, 212.145 162.630, 213.509 169.902 C 213.879 171.872, 214.423 173.875, 214.718 174.352 C 215.219 175.164, 242 149.228, 242 147.930 C 242 147.601, 236.830 152.544, 230.511 158.916 L 219.022 170.500 219.033 165.500 C 219.045 160.098, 221.781 152.931, 225.236 149.250 C 227.814 146.504, 227.435 146.437, 223.366 148.919 M 99.378 158.241 C 97.347 160.024, 94.867 163.287, 93.865 165.491 C 92.032 169.525, 91.528 176.945, 92.856 180.315 C 93.548 182.069, 93.626 182.069, 95.154 180.315 C 96.024 179.317, 96.999 175.809, 97.319 172.521 C 97.685 168.778, 99.016 164.383, 100.879 160.771 C 102.516 157.597, 103.678 155, 103.462 155 C 103.246 155, 101.408 156.459, 99.378 158.241 M 116.986 179.750 L 103.500 193.500 117.250 180.014 C 130.023 167.486, 131.453 166, 130.736 166 C 130.591 166, 124.403 172.188, 116.986 179.750 M 279.177 206.987 C 272.468 211.846, 269.056 220.780, 271.062 228.232 C 272.096 232.070, 272.189 232.139, 274.065 230.442 C 275.458 229.181, 276 227.368, 276 223.971 C 276 218.249, 278.161 211.788, 281.571 207.319 C 282.963 205.493, 283.921 204, 283.701 204 C 283.480 204, 281.445 205.344, 279.177 206.987 M 157.828 214.264 C 151.658 218.918, 148.769 224.966, 149.247 232.229 C 149.455 235.380, 149.952 238.285, 150.352 238.685 C 150.752 239.085, 157.188 233.303, 164.655 225.836 C 174.103 216.388, 177.844 212.022, 176.961 211.476 C 176.217 211.016, 175.940 211.094, 176.293 211.664 C 176.624 212.200, 171.691 217.782, 165.331 224.069 L 153.767 235.500 154.376 229.891 C 155.104 223.182, 156.999 218.344, 160.552 214.121 C 163.895 210.147, 163.240 210.182, 157.828 214.264" stroke="none" fill="#fc2b3a" fill-rule="evenodd"/><path d="M 170.050 90.212 C 166.072 92.318, 162 101.245, 162 107.859 L 162 113.489 173.206 102.283 C 179.369 96.120, 184.093 90.760, 183.704 90.371 C 182.347 89.014, 172.530 88.900, 170.050 90.212 M 229.500 146.669 C 224.196 148.094, 219.026 157.373, 219.010 165.494 L 219 170.489 230.206 159.283 C 236.369 153.120, 241.171 147.837, 240.877 147.543 C 240.043 146.709, 231.728 146.070, 229.500 146.669 M 108.049 154.020 C 106.151 154.465, 103.963 155.656, 103.186 156.665 C 100.351 160.351, 97.827 167.286, 97.304 172.825 L 96.769 178.500 108.367 167.033 C 114.747 160.726, 119.636 155.268, 119.233 154.904 C 117.898 153.699, 111.554 153.197, 108.049 154.020 M 286.248 203.657 C 281.408 204.695, 276 215.357, 276 223.859 L 276 228.467 287.483 217.017 C 293.799 210.719, 298.618 205.218, 298.193 204.793 C 297.194 203.794, 289.166 203.030, 286.248 203.657 M 166 210.838 C 160.521 211.578, 155.477 219.781, 154.397 229.711 L 153.767 235.500 165.331 224.069 C 171.691 217.782, 176.696 212.317, 176.453 211.925 C 175.914 211.052, 169.417 210.376, 166 210.838" stroke="none" fill="#ff4755" fill-rule="evenodd"/><path d="M 112.839 84.750 C 65.840 131.814, 44.480 153.874, 42.881 157 C 41.143 160.395, 40.569 163.218, 40.539 168.500 C 40.465 181.694, 40.407 181.614, 76.852 218.250 L 109.432 251 124.323 251 C 138.118 251, 139.160 250.871, 138.479 249.250 C 134.134 238.903, 133.803 237.365, 134.221 229.500 C 134.888 216.985, 139.672 208.226, 149.500 201.529 C 171.452 186.568, 200.440 199.223, 205.124 225.811 C 206.315 232.578, 205.334 239.195, 202.033 246.659 L 200.112 251 233.660 251 L 267.207 251 263.955 247.296 C 248.635 229.847, 254.623 201.699, 275.875 191.262 C 280.819 188.834, 282.650 188.500, 291 188.500 C 299.206 188.500, 301.276 188.864, 306.196 191.170 C 313.454 194.572, 319.883 201.002, 323.584 208.562 C 326.172 213.847, 326.492 215.544, 326.495 224 C 326.499 234.933, 324.741 239.960, 318.496 246.872 L 314.767 251 365.631 251 L 416.494 251 356.786 191.250 C 323.947 158.387, 296.673 130.377, 296.177 129.005 C 295.621 127.467, 295.657 125.413, 296.272 123.649 C 297.208 120.965, 296.868 120.387, 290.769 114.287 C 285.033 108.551, 284.024 107.917, 282.200 108.893 C 281.062 109.502, 279.110 110, 277.861 110 C 276.200 110, 263.063 97.501, 228.989 63.500 C 203.359 37.925, 181.963 17, 181.442 17 C 180.921 17, 150.050 47.487, 112.839 84.750 M 165.844 75.337 C 151.231 80.785, 142.285 92.288, 141.233 106.981 C 139.728 128.026, 156.184 145.437, 177.421 145.267 C 194.023 145.133, 207.572 134.160, 211.678 117.521 C 215.581 101.707, 207.772 85.056, 192.856 77.387 C 188.420 75.107, 185.953 74.577, 178.500 74.304 C 172.596 74.087, 168.242 74.442, 165.844 75.337 M 223.096 132.507 C 211.820 136.022, 201.292 147.461, 198.950 158.739 C 194.680 179.309, 207.659 198.232, 228.706 202.123 C 243.404 204.840, 259.149 196.568, 266.080 182.489 C 277.746 158.793, 260.626 130.930, 234.500 131.091 C 230.650 131.114, 225.518 131.752, 223.096 132.507 M 102.286 139.392 C 92.275 142.661, 85.360 148.589, 80.248 158.287 C 77.756 163.014, 77.500 164.478, 77.500 174 C 77.500 183.586, 77.746 184.966, 80.320 189.856 C 88.234 204.883, 104.719 212.578, 120.602 208.658 C 144.303 202.809, 155.225 178.322, 143.764 156.732 C 137.770 145.440, 127.162 138.877, 114.020 138.329 C 109.491 138.140, 104.824 138.563, 102.286 139.392" stroke="none" fill="#ffe55a" fill-rule="evenodd"/><path d="M 46.044 270.750 C 39.807 278.291, 40 274.732, 40 382.067 C 40 489.800, 39.767 485.622, 46.209 493.437 L 49.160 497.018 263.830 496.759 L 478.500 496.500 482.956 494 C 485.406 492.625, 488.781 489.550, 490.456 487.166 L 493.500 482.831 494 439.568 C 494.537 393.133, 494.442 393.923, 499.709 391.921 C 501.876 391.097, 502 390.533, 502 381.525 C 502 372.786, 501.841 372, 500.073 372 C 499.012 372, 497.212 370.814, 496.073 369.365 C 494.052 366.796, 493.999 365.685, 493.978 325.115 C 493.958 287.025, 493.802 283.160, 492.135 279.491 C 489.845 274.450, 484.193 269.425, 479.277 268.060 C 476.696 267.343, 407.992 267.009, 262.323 267.006 L 49.146 267 46.044 270.750 M 87.355 300.989 C 58.719 307.003, 48.915 343.098, 70.548 362.869 C 77.614 369.328, 84.623 372, 94.500 372 C 104.429 372, 111.379 369.334, 118.560 362.771 C 130.890 351.502, 133.945 334.692, 126.376 319.756 C 119.515 306.216, 102.176 297.877, 87.355 300.989 M 168.407 301.031 C 150.408 304.599, 137.449 322.170, 139.526 340.189 C 140.901 352.109, 148.964 363.379, 159.993 368.795 C 164.376 370.948, 167.235 371.568, 174 371.835 C 185.887 372.304, 192.370 369.805, 200.588 361.588 C 208.250 353.925, 211 347.299, 211 336.500 C 211 326.571, 208.334 319.621, 201.771 312.440 C 196.121 306.258, 190.165 302.814, 182.201 301.124 C 176.285 299.869, 174.332 299.856, 168.407 301.031 M 247.033 301.542 C 227.693 306.949, 216.094 326.909, 221.455 345.558 C 224.577 356.419, 230.496 363.555, 241 369.117 C 244.916 371.191, 246.863 371.500, 256 371.500 C 264.932 371.500, 267.196 371.157, 271.162 369.203 C 278.644 365.518, 284.577 359.606, 288.213 352.213 C 291.234 346.070, 291.499 344.762, 291.489 336.015 C 291.479 327.484, 291.174 325.897, 288.534 320.663 C 280.915 305.557, 262.696 297.162, 247.033 301.542 M 328.024 301.544 C 317.029 304.618, 309.041 311.418, 304.135 321.880 C 301.900 326.647, 301.500 328.865, 301.500 336.500 C 301.500 344.151, 301.893 346.324, 304.125 351 C 307.832 358.764, 312.845 364.096, 320.174 368.070 C 326.237 371.357, 326.937 371.500, 337 371.500 C 347.063 371.500, 347.763 371.357, 353.826 368.070 C 361.155 364.096, 366.168 358.764, 369.875 351 C 372.108 346.321, 372.500 344.153, 372.500 336.479 C 372.500 328.305, 372.192 326.832, 369.219 320.794 C 361.601 305.319, 343.978 297.084, 328.024 301.544 M 409.384 301.361 C 399.106 303.957, 389.085 312.252, 384.661 321.824 C 382.902 325.630, 382.500 328.361, 382.500 336.500 C 382.500 345.992, 382.674 346.821, 385.927 352.821 C 389.746 359.864, 395.815 365.744, 402.838 369.203 C 406.804 371.157, 409.068 371.500, 418 371.500 C 427.137 371.500, 429.084 371.191, 433 369.117 C 443.609 363.499, 449.691 356.123, 452.450 345.530 C 454.498 337.668, 454.405 333.522, 452.007 325.758 C 446.446 307.754, 427.349 296.823, 409.384 301.361 M 87.355 391.989 C 58.719 398.003, 48.915 434.098, 70.548 453.869 C 77.614 460.328, 84.623 463, 94.500 463 C 104.429 463, 111.379 460.334, 118.560 453.771 C 130.890 442.502, 133.945 425.692, 126.376 410.756 C 119.515 397.216, 102.176 388.877, 87.355 391.989 M 168.407 392.031 C 150.408 395.599, 137.449 413.170, 139.526 431.189 C 140.901 443.109, 148.964 454.379, 159.993 459.795 C 164.376 461.948, 167.235 462.568, 174 462.835 C 185.887 463.304, 192.370 460.805, 200.588 452.588 C 208.805 444.370, 211.304 437.887, 210.835 426 C 210.568 419.235, 209.948 416.376, 207.795 411.993 C 202.737 401.694, 193.497 394.521, 182.201 392.124 C 176.285 390.869, 174.332 390.856, 168.407 392.031 M 247.033 392.542 C 227.693 397.949, 216.094 417.909, 221.455 436.558 C 224.577 447.419, 230.496 454.555, 241 460.117 C 244.916 462.191, 246.863 462.500, 256 462.500 C 264.932 462.500, 267.196 462.157, 271.162 460.203 C 278.644 456.518, 284.577 450.606, 288.213 443.213 C 291.234 437.070, 291.499 435.762, 291.489 427.015 C 291.479 418.484, 291.174 416.897, 288.534 411.663 C 280.915 396.557, 262.696 388.162, 247.033 392.542 M 328.024 392.544 C 317.029 395.618, 309.041 402.418, 304.135 412.880 C 301.900 417.647, 301.500 419.865, 301.500 427.500 C 301.500 435.151, 301.893 437.324, 304.125 442 C 307.832 449.764, 312.845 455.096, 320.174 459.070 C 326.237 462.357, 326.937 462.500, 337 462.500 C 347.063 462.500, 347.763 462.357, 353.826 459.070 C 361.155 455.096, 366.168 449.764, 369.875 442 C 372.108 437.321, 372.500 435.153, 372.500 427.479 C 372.500 419.305, 372.192 417.832, 369.219 411.794 C 361.601 396.319, 343.978 388.084, 328.024 392.544 M 409.384 392.412 C 399.192 394.885, 389.101 403.217, 384.661 412.824 C 382.902 416.630, 382.500 419.361, 382.500 427.500 C 382.500 436.992, 382.674 437.821, 385.927 443.821 C 389.759 450.888, 395.858 456.785, 402.823 460.157 C 409.673 463.473, 422.571 463.919, 430.048 461.100 C 441.382 456.825, 449.551 447.876, 452.467 436.540 C 454.502 428.629, 454.401 424.508, 451.980 416.669 C 448.301 404.760, 438.786 395.742, 426.530 392.550 C 419.583 390.740, 416.377 390.715, 409.384 392.412" stroke="none" fill="#d7e9fa" fill-rule="evenodd"/><path d="M 175.250 88.689 C 176.213 88.941, 177.787 88.941, 178.750 88.689 C 179.713 88.438, 178.925 88.232, 177 88.232 C 175.075 88.232, 174.287 88.438, 175.250 88.689 M 171.430 104.009 C 163.691 111.704, 157.622 118, 157.943 118 C 158.264 118, 164.815 111.700, 172.500 104 C 180.185 96.300, 186.254 90.004, 185.987 90.009 C 185.719 90.014, 179.168 96.314, 171.430 104.009 M 141.272 109 C 141.272 111.475, 141.467 112.487, 141.706 111.250 C 141.944 110.013, 141.944 107.987, 141.706 106.750 C 141.467 105.513, 141.272 106.525, 141.272 109 M 174.750 130.706 C 175.988 130.944, 178.012 130.944, 179.250 130.706 C 180.488 130.467, 179.475 130.272, 177 130.272 C 174.525 130.272, 173.512 130.467, 174.750 130.706 M 110.762 138.707 C 112.006 138.946, 113.806 138.937, 114.762 138.687 C 115.718 138.437, 114.700 138.241, 112.500 138.252 C 110.300 138.263, 109.518 138.468, 110.762 138.707 M 208.453 142.250 L 204.500 146.500 208.750 142.547 C 211.088 140.373, 213 138.460, 213 138.297 C 213 137.540, 212.129 138.298, 208.453 142.250 M 107.018 168.500 L 93.535 182.500 107.474 168.789 C 115.140 161.249, 121.207 154.949, 120.956 154.789 C 120.705 154.630, 114.433 160.800, 107.018 168.500 M 238.487 172.250 L 224.500 186.500 238.548 172.715 C 246.275 165.133, 252.912 159.246, 253.298 159.632 C 253.684 160.018, 254 159.808, 254 159.167 C 254 158.525, 253.656 158, 253.237 158 C 252.817 158, 246.179 164.412, 238.487 172.250 M 133.232 174 C 133.232 175.925, 133.438 176.713, 133.689 175.750 C 133.941 174.787, 133.941 173.213, 133.689 172.250 C 133.438 171.287, 133.232 172.075, 133.232 174 M 289.264 188.718 C 290.784 188.947, 293.034 188.941, 294.264 188.704 C 295.494 188.467, 294.250 188.279, 291.500 188.286 C 288.750 188.294, 287.744 188.488, 289.264 188.718 M 265.946 198.750 L 262.500 202.500 266.250 199.054 C 268.313 197.158, 270 195.471, 270 195.304 C 270 194.540, 269.154 195.260, 265.946 198.750 M 144.453 206.250 L 140.500 210.500 144.750 206.547 C 147.088 204.373, 149 202.460, 149 202.297 C 149 201.540, 148.129 202.298, 144.453 206.250 M 286.018 218.500 L 272.535 232.500 286.474 218.789 C 294.140 211.249, 300.207 204.949, 299.956 204.789 C 299.705 204.630, 293.433 210.800, 286.018 218.500 M 295.986 228.750 L 282.500 242.500 296.466 229 C 304.147 221.575, 310.634 215.387, 310.882 215.250 C 311.130 215.113, 310.915 215, 310.403 215 C 309.891 215, 303.403 221.188, 295.986 228.750 M 326.272 224 C 326.272 226.475, 326.467 227.488, 326.706 226.250 C 326.944 225.012, 326.944 222.988, 326.706 221.750 C 326.467 220.512, 326.272 221.525, 326.272 224 M 174.535 235.965 C 166.869 243.646, 160.800 250.058, 161.048 250.215 C 161.297 250.372, 167.783 244.088, 175.462 236.250 C 183.140 228.412, 189.209 222, 188.948 222 C 188.687 222, 182.201 228.284, 174.535 235.965 M 315.437 249.250 L 312.500 252.500 315.750 249.563 C 318.779 246.825, 319.460 246, 318.687 246 C 318.515 246, 317.052 247.463, 315.437 249.250 M 146.330 266.750 C 207.287 266.892, 306.737 266.892, 367.330 266.750 C 427.924 266.608, 378.050 266.491, 256.500 266.491 C 134.950 266.491, 85.374 266.608, 146.330 266.750 M 17.480 382 C 17.480 435.075, 17.602 456.788, 17.750 430.250 C 17.898 403.713, 17.898 360.288, 17.750 333.750 C 17.602 307.213, 17.480 328.925, 17.480 382 M 69.437 311.250 L 66.500 314.500 69.750 311.563 C 71.537 309.948, 73 308.485, 73 308.313 C 73 307.540, 72.175 308.221, 69.437 311.250 M 119 311.500 C 120.866 313.425, 122.617 315, 122.892 315 C 123.167 315, 121.866 313.425, 120 311.500 C 118.134 309.575, 116.383 308, 116.108 308 C 115.833 308, 117.134 309.575, 119 311.500 M 149.946 311.750 L 146.500 315.500 150.250 312.054 C 153.740 308.846, 154.460 308, 153.696 308 C 153.529 308, 151.842 309.688, 149.946 311.750 M 87.420 336.500 C 87.419 347.500, 87.565 352.136, 87.745 346.803 C 87.924 341.470, 87.925 332.470, 87.746 326.803 C 87.568 321.136, 87.421 325.500, 87.420 336.500 M 182.420 336.500 C 182.419 347.500, 182.565 352.136, 182.745 346.803 C 182.924 341.470, 182.925 332.470, 182.746 326.803 C 182.568 321.136, 182.421 325.500, 182.420 336.500 M 263.196 336.250 C 263.088 347.113, 263.337 356.001, 263.750 356.002 C 264.163 356.003, 264.383 350.040, 264.240 342.752 C 263.767 318.581, 263.394 316.259, 263.196 336.250 M 409.791 336.501 C 409.631 347.227, 409.837 356.002, 410.250 356.001 C 410.663 356, 411 347.225, 411 336.500 C 411 325.775, 410.793 317, 410.541 317 C 410.288 317, 409.951 325.775, 409.791 336.501 M 430 319.313 C 430 319.485, 431.462 320.948, 433.250 322.563 L 436.500 325.500 433.563 322.250 C 430.825 319.221, 430 318.540, 430 319.313 M 291.272 336 C 291.272 338.475, 291.467 339.488, 291.706 338.250 C 291.944 337.012, 291.944 334.988, 291.706 333.750 C 291.467 332.512, 291.272 333.525, 291.272 336 M 382.286 336.500 C 382.294 339.250, 382.488 340.256, 382.718 338.736 C 382.947 337.216, 382.941 334.966, 382.704 333.736 C 382.467 332.506, 382.279 333.750, 382.286 336.500 M 115.252 336.500 C 115.263 338.700, 115.468 339.482, 115.707 338.238 C 115.946 336.994, 115.937 335.194, 115.687 334.238 C 115.437 333.282, 115.241 334.300, 115.252 336.500 M 154.252 336.500 C 154.263 338.700, 154.468 339.482, 154.707 338.238 C 154.946 336.994, 154.937 335.194, 154.687 334.238 C 154.437 333.282, 154.241 334.300, 154.252 336.500 M 319 348.313 C 319 348.485, 320.462 349.948, 322.250 351.563 L 325.500 354.500 322.563 351.250 C 319.825 348.221, 319 347.540, 319 348.313 M 351.437 351.250 L 348.500 354.500 351.750 351.563 C 354.779 348.825, 355.460 348, 354.687 348 C 354.515 348, 353.052 349.462, 351.437 351.250 M 400 348.313 C 400 348.485, 401.462 349.948, 403.250 351.563 L 406.500 354.500 403.563 351.250 C 400.825 348.221, 400 347.540, 400 348.313 M 147 358.313 C 147 358.485, 148.463 359.948, 150.250 361.563 L 153.500 364.500 150.563 361.250 C 147.825 358.221, 147 357.540, 147 358.313 M 231 361.500 C 232.866 363.425, 234.617 365, 234.892 365 C 235.167 365, 233.866 363.425, 232 361.500 C 230.134 359.575, 228.383 358, 228.108 358 C 227.833 358, 229.134 359.575, 231 361.500 M 441.946 361.750 L 438.500 365.500 442.250 362.054 C 444.313 360.158, 446 358.471, 446 358.304 C 446 357.540, 445.154 358.260, 441.946 361.750 M 69.437 402.250 L 66.500 405.500 69.750 402.563 C 71.537 400.948, 73 399.485, 73 399.313 C 73 398.540, 72.175 399.221, 69.437 402.250 M 119 402.500 C 120.866 404.425, 122.617 406, 122.892 406 C 123.167 406, 121.866 404.425, 120 402.500 C 118.134 400.575, 116.383 399, 116.108 399 C 115.833 399, 117.134 400.575, 119 402.500 M 149.946 402.750 L 146.500 406.500 150.250 403.054 C 152.313 401.158, 154 399.471, 154 399.304 C 154 398.540, 153.154 399.260, 149.946 402.750 M 87.420 427.500 C 87.419 438.500, 87.565 443.136, 87.745 437.803 C 87.924 432.470, 87.925 423.470, 87.746 417.803 C 87.568 412.136, 87.421 416.500, 87.420 427.500 M 182.420 427.500 C 182.419 438.500, 182.565 443.136, 182.745 437.803 C 182.924 432.470, 182.925 423.470, 182.746 417.803 C 182.568 412.136, 182.421 416.500, 182.420 427.500 M 263.196 427.250 C 263.088 438.113, 263.337 447.001, 263.750 447.002 C 264.163 447.003, 264.383 441.040, 264.240 433.752 C 263.767 409.581, 263.394 407.259, 263.196 427.250 M 409.791 427.501 C 409.631 438.227, 409.837 447.002, 410.250 447.001 C 410.663 447, 411 438.225, 411 427.500 C 411 416.775, 410.793 408, 410.541 408 C 410.288 408, 409.951 416.775, 409.791 427.501 M 430 410.313 C 430 410.485, 431.462 411.948, 433.250 413.563 L 436.500 416.500 433.563 413.250 C 430.825 410.221, 430 409.540, 430 410.313 M 291.272 427 C 291.272 429.475, 291.467 430.488, 291.706 429.250 C 291.944 428.012, 291.944 425.988, 291.706 424.750 C 291.467 423.512, 291.272 424.525, 291.272 427 M 382.286 427.500 C 382.294 430.250, 382.488 431.256, 382.718 429.736 C 382.947 428.216, 382.941 425.966, 382.704 424.736 C 382.467 423.506, 382.279 424.750, 382.286 427.500 M 115.252 427.500 C 115.263 429.700, 115.468 430.482, 115.707 429.238 C 115.946 427.994, 115.937 426.194, 115.687 425.238 C 115.437 424.282, 115.241 425.300, 115.252 427.500 M 154.252 427.500 C 154.263 429.700, 154.468 430.482, 154.707 429.238 C 154.946 427.994, 154.937 426.194, 154.687 425.238 C 154.437 424.282, 154.241 425.300, 154.252 427.500 M 319 439.313 C 319 439.485, 320.462 440.948, 322.250 442.563 L 325.500 445.500 322.563 442.250 C 319.825 439.221, 319 438.540, 319 439.313 M 351.437 442.250 L 348.500 445.500 351.750 442.563 C 354.779 439.825, 355.460 439, 354.687 439 C 354.515 439, 353.052 440.462, 351.437 442.250 M 400 439.313 C 400 439.485, 401.462 440.948, 403.250 442.563 L 406.500 445.500 403.563 442.250 C 400.825 439.221, 400 438.540, 400 439.313 M 147 449.313 C 147 449.485, 148.463 450.948, 150.250 452.563 L 153.500 455.500 150.563 452.250 C 147.825 449.221, 147 448.540, 147 449.313 M 231 452.500 C 232.866 454.425, 234.617 456, 234.892 456 C 235.167 456, 233.866 454.425, 232 452.500 C 230.134 450.575, 228.383 449, 228.108 449 C 227.833 449, 229.134 450.575, 231 452.500 M 441.946 452.750 L 438.500 456.500 442.250 453.054 C 445.740 449.846, 446.460 449, 445.696 449 C 445.529 449, 443.842 450.688, 441.946 452.750 M 21 488.313 C 21 488.485, 22.462 489.948, 24.250 491.563 L 27.500 494.500 24.563 491.250 C 21.825 488.221, 21 487.540, 21 488.313 M 146.250 497.750 C 206.613 497.892, 305.388 497.892, 365.750 497.750 C 426.113 497.608, 376.725 497.491, 256 497.491 C 135.275 497.491, 85.888 497.608, 146.250 497.750" stroke="none" fill="#0a141b" fill-rule="evenodd"/></svg>